<svg width="36" height="46" viewBox="0 0 36 46" fill="none" xmlns="http://www.w3.org/2000/svg">
<path d="M18 15.4501C19.2 15.4501 20.325 15.9251 21.175 16.7751L29.775 25.3751C31.525 27.1251 31.525 30.0001 29.775 31.7501L21.175 40.3501C20.325 41.2001 19.2 41.6751 18 41.6751C16.8 41.6751 15.675 41.2001 14.825 40.3501L6.22499 31.7501C4.47499 30.0001 4.47499 27.1251 6.22499 25.3751L14.825 16.7751C15.675 15.9251 16.8 15.4501 18 15.4501ZM18 11.2251C15.775 11.2251 13.525 12.0751 11.825 13.7751L3.22499 22.3751C-0.175012 25.7751 -0.175012 31.3251 3.22499 34.7251L11.825 43.3251C13.525 45.0251 15.775 45.8751 18 45.8751C20.225 45.8751 22.475 45.0251 24.175 43.3251L32.775 34.7251C36.175 31.3251 36.175 25.7751 32.775 22.3751L24.175 13.7751C22.475 12.0751 20.225 11.2251 18 11.2251Z" fill="#FB6514"/>
<path d="M18 4.85C19.2 4.85 20.325 5.32499 21.175 6.17499L29.775 14.775C31.525 16.525 31.525 19.4 29.775 21.15L21.175 29.75C20.325 30.6 19.2 31.075 18 31.075C16.8 31.075 15.675 30.6 14.825 29.75L6.22502 21.15C4.47502 19.4 4.47502 16.525 6.22502 14.775L14.825 6.17499C15.675 5.32499 16.8 4.85 18 4.85ZM18 0.625C15.775 0.625 13.525 1.475 11.825 3.175L3.22502 11.775C-0.174982 15.175 -0.174982 20.725 3.22502 24.125L11.825 32.725C13.525 34.425 15.775 35.275 18 35.275C20.225 35.275 22.475 34.425 24.175 32.725L32.775 24.125C36.175 20.725 36.175 15.175 32.775 11.775L24.175 3.175C22.475 1.475 20.225 0.625 18 0.625Z" fill="#FB6514"/>
</svg>
