<svg width="59" height="59" viewBox="0 0 59 59" fill="none" xmlns="http://www.w3.org/2000/svg">
<path d="M19.8333 7.94645H10.75C9.33576 7.94645 8.62866 7.94645 8.18932 8.38579C7.74998 8.82513 7.74998 9.53224 7.74998 10.9465V20.0298" stroke="white" stroke-width="2" stroke-linecap="round"/>
<path d="M19.8333 51.4461H10.75C9.33576 51.4461 8.62866 51.4461 8.18932 51.0068C7.74998 50.5674 7.74998 49.8603 7.74998 48.4461V39.3628" stroke="white" stroke-width="2" stroke-linecap="round"/>
<path d="M39.1667 7.94645H48.25C49.6642 7.94645 50.3713 7.94645 50.8107 8.38579C51.25 8.82513 51.25 9.53224 51.25 10.9465V20.0298" stroke="white" stroke-width="2" stroke-linecap="round"/>
<path d="M39.1667 51.4461H48.25C49.6642 51.4461 50.3713 51.4461 50.8107 51.0068C51.25 50.5674 51.25 49.8603 51.25 48.4461V39.3628" stroke="white" stroke-width="2" stroke-linecap="round"/>
</svg>
