<svg width="23" height="23" viewBox="0 0 23 23" fill="none" xmlns="http://www.w3.org/2000/svg">
<path fill-rule="evenodd" clip-rule="evenodd" d="M-6.10352e-05 4C-6.10352e-05 1.79086 1.7908 0 3.99994 0H18.9999C21.2091 0 22.9999 1.79086 22.9999 4V19C22.9999 21.2091 21.2091 23 18.9999 23H3.99994C1.7908 23 -6.10352e-05 21.2091 -6.10352e-05 19V4ZM3.67934 3.69502C4.21342 3.16094 5.07933 3.16094 5.6134 3.69502L11.4843 9.56594L17.0329 4.01737C17.567 3.48329 18.4329 3.48329 18.967 4.01737C19.501 4.55145 19.501 5.41736 18.967 5.95144L13.4184 11.5L18.9669 17.0486C19.501 17.5827 19.501 18.4486 18.9669 18.9826C18.4329 19.5167 17.567 19.5167 17.0329 18.9826L11.4843 13.4341L5.6134 19.305C5.07932 19.8391 4.21341 19.8391 3.67934 19.305C3.14526 18.7709 3.14526 17.905 3.67934 17.3709L9.55025 11.5L3.67934 5.62908C3.14526 5.095 3.14526 4.22909 3.67934 3.69502Z" fill="#D9D9D9"/>
</svg>
