<svg width="58" height="58" viewBox="0 0 58 58" fill="none" xmlns="http://www.w3.org/2000/svg">
<path d="M47.3425 21.0135C46.8681 19.2092 45.7818 18.3675 43.9245 18.3665C42.5259 18.3665 41.1273 18.3636 39.7287 18.3665C37.7094 18.3715 36.3894 19.6905 36.3884 21.7118C36.3854 28.3866 36.3884 35.0624 36.3884 41.7372C36.3884 41.8599 36.3903 41.9827 36.3962 42.1055C36.467 43.729 37.7929 45.0559 39.4213 45.0824C41.0645 45.1079 42.7096 45.104 44.3528 45.0824C45.6089 45.0657 46.7296 44.2407 47.1686 43.0621C47.2531 42.8352 47.312 42.5985 47.3827 42.3657V21.0744C47.369 21.0547 47.3484 21.0361 47.3425 21.0135ZM44.2143 41.9218H39.5451V21.537H44.2143V41.9218Z" fill="white"/>
<path d="M17.5416 32.5215C15.9603 32.4862 14.3771 32.4921 12.7948 32.5206C11.41 32.5451 10.2834 33.375 9.84539 34.6244C9.77664 34.8198 9.72556 35.0211 9.66663 35.2195V42.4394C9.68823 42.4807 9.71965 42.52 9.73046 42.5642C10.1164 44.1366 11.3039 45.0854 12.9088 45.0903C14.4174 45.0952 15.926 45.0962 17.4346 45.0903C19.2928 45.0824 20.6413 43.7555 20.6551 41.8934C20.6708 39.8328 20.6718 37.7712 20.6551 35.7106C20.6404 33.8946 19.3498 32.5628 17.5396 32.5215H17.5416ZM17.5073 41.9159H12.8331V35.69H17.5073V41.9159Z" fill="white"/>
<path d="M30.7448 26.2315C29.2962 26.2286 27.8475 26.2306 26.3988 26.2315C24.3401 26.2325 23.0211 27.5535 23.0191 29.62C23.0172 31.6334 23.0191 33.6469 23.0191 35.6603C23.0191 37.6983 23.0191 39.7363 23.0191 41.7743C23.0191 41.7988 23.0191 41.8234 23.0191 41.848C23.0456 43.7465 24.3922 45.0842 26.2878 45.0901C27.7728 45.094 29.2588 45.094 30.7439 45.0901C32.664 45.0862 34.0223 43.7524 34.0272 41.8303C34.038 37.717 34.038 33.6037 34.0272 29.4913C34.0223 27.5683 32.665 26.2355 30.7439 26.2315H30.7448ZM30.8558 41.9157H26.1896V29.4H30.8558V41.9157Z" fill="white"/>
<path d="M18.8095 24.6247C19.4057 24.7396 19.885 24.5245 20.3024 24.1061C22.4082 21.9955 24.5179 19.8877 26.6266 17.78C26.715 17.6916 26.8083 17.6072 26.9625 17.4608C26.9625 18.3713 26.9487 19.1786 26.9664 19.986C26.986 20.8552 27.6775 21.5172 28.529 21.5152C29.3658 21.5132 30.073 20.8611 30.0799 20.0144C30.0975 17.8674 30.0975 15.7194 30.0789 13.5724C30.072 12.7562 29.4041 12.0992 28.587 12.0933C26.4517 12.0776 24.3175 12.0835 22.1823 12.0923C21.703 12.0943 21.3032 12.3064 21.0096 12.6885C20.6246 13.1894 20.5519 13.7453 20.818 14.3149C21.1048 14.9298 21.6224 15.2244 22.2933 15.2333C23.0652 15.2441 23.8372 15.2352 24.7084 15.2352C24.5522 15.4012 24.4648 15.4984 24.3725 15.5908C22.4376 17.5256 20.5028 19.4605 18.5679 21.3963C18.3509 21.6134 18.1259 21.8226 17.9226 22.0524C17.5229 22.5042 17.4276 23.0326 17.6181 23.5974C17.8097 24.1661 18.2173 24.5108 18.8085 24.6247H18.8095Z" fill="white"/>
</svg>
