<svg width="59" height="59" viewBox="0 0 59 59" fill="none" xmlns="http://www.w3.org/2000/svg">
<g clip-path="url(#clip0_2026_354)">
<path d="M53.6954 22.2012C53.2483 23.5555 52.3904 24.5159 50.9649 24.9572C51.633 25.837 51.9757 26.7728 52.0373 27.8329C52.1693 30.1059 50.33 32.3429 48.0759 32.6418C46.4037 32.863 45.0019 32.3609 43.8213 31.1784C42.4385 29.7927 41.0538 28.4099 39.6691 27.0262C39.5476 26.9047 39.4214 26.7889 39.3218 26.695C35.0624 30.9515 30.8229 35.1882 26.5464 39.4618C26.628 39.5482 26.74 39.6725 26.8577 39.7911C28.2746 41.209 29.703 42.6156 31.1085 44.0449C32.833 45.7987 33.0437 48.3508 31.6476 50.265C30.1642 52.2989 27.2924 52.7905 25.1968 51.3716C25.0829 51.2948 24.9633 51.2255 24.9263 51.2018C24.5116 51.7864 24.1946 52.4279 23.7049 52.8854C22.1161 54.3716 19.9286 54.2625 18.3199 52.6823C17.4762 51.8538 16.6476 51.011 15.7726 50.1341C15.1766 50.7358 14.6052 51.3166 14.0292 51.8927C12.5619 53.3599 10.9532 53.3542 9.47554 51.8794C8.72673 51.1325 7.97507 50.3884 7.2329 49.6348C5.90706 48.2891 5.9137 46.6273 7.24903 45.2843C7.84979 44.6807 8.46289 44.0895 9.10161 43.4621C8.2465 42.608 7.42176 41.7832 6.59513 40.9613C5.98962 40.3587 5.53977 39.6678 5.37558 38.8164C5.03012 37.018 5.99532 35.2527 7.6951 34.5665C7.80993 34.52 7.92667 34.4764 8.06523 34.4223C7.83651 33.9971 7.56792 33.608 7.40563 33.1799C6.69573 31.3141 6.98425 29.5887 8.35375 28.1376C9.61126 26.8051 11.1952 26.3932 12.9833 26.8383C13.8802 27.0613 14.6223 27.5472 15.2696 28.1983C16.7606 29.6978 18.2591 31.1888 19.7122 32.6399C23.9668 28.3815 28.211 24.1344 32.4856 19.856C32.4515 19.8199 32.3366 19.6947 32.2161 19.5741C30.7991 18.1562 29.3708 16.7497 27.9671 15.3185C26.2816 13.5998 26.0472 11.1407 27.3559 9.21224C28.7814 7.11291 31.7511 6.54916 33.8523 7.97941C33.969 8.05913 34.0886 8.1341 34.2319 8.22806C34.2784 8.15688 34.3325 8.10184 34.3553 8.0354C34.77 6.83388 35.5986 6.0528 36.7849 5.63047C36.8381 5.61149 36.8817 5.56593 36.9292 5.53271C37.5926 5.53271 38.255 5.53271 38.9184 5.53271C39.9187 5.87153 40.6694 6.55296 41.3803 7.29893C41.9991 7.94904 42.6416 8.57732 43.3069 9.24831C43.9504 8.5982 44.553 7.97656 45.168 7.36916C46.4948 6.0585 48.1452 6.05945 49.4815 7.372C50.2692 8.14644 51.0494 8.92942 51.8266 9.7143C53.1791 11.08 53.1762 12.7342 51.8228 14.0971C51.2249 14.6997 50.6213 15.2967 49.9855 15.9297C50.6043 16.5419 51.1927 17.135 51.7934 17.714C52.5783 18.4694 53.3433 19.2363 53.6954 20.3087V22.2031V22.2012ZM28.4075 11.7595C28.4113 12.8026 28.8289 13.5096 29.4581 14.1379C34.6742 19.3426 39.8827 24.5548 45.094 29.7633C45.2496 29.919 45.4119 30.0708 45.5837 30.2084C46.9057 31.2666 48.9235 30.8785 49.7634 29.4074C50.46 28.1869 50.2332 26.8734 49.1209 25.7602C43.901 20.5374 38.6783 15.3166 33.4565 10.0958C33.3227 9.962 33.1823 9.83388 33.0342 9.71715C32.1212 8.99491 31.1114 8.85919 30.0636 9.33847C28.9921 9.82819 28.4701 10.7222 28.4066 11.7595H28.4075ZM11.6831 28.5485C10.679 28.6026 9.82385 29.0591 9.28668 30.0234C8.62138 31.2182 8.8615 32.5099 9.94153 33.5899C15.1728 38.824 20.4069 44.0553 25.641 49.2865C25.7852 49.4308 25.9409 49.5656 26.1003 49.6946C27.2297 50.6019 28.9399 50.4634 29.9118 49.3881C31.0004 48.1837 30.9235 46.5485 29.7001 45.3185C27.5296 43.1375 25.3506 40.9661 23.1753 38.7899C20.107 35.7215 17.0358 32.657 13.9741 29.583C13.3572 28.9632 12.6549 28.5694 11.6831 28.5485ZM25.1418 37.9623C29.3613 33.7427 33.6065 29.4976 37.7871 25.3169C36.5021 24.03 35.181 22.7089 33.9387 21.4647C29.7371 25.6652 25.4939 29.9066 21.2933 34.1053C22.5575 35.3723 23.8691 36.6877 25.1418 37.9632V37.9623ZM50.1354 23.1559C50.1753 23.1493 50.3347 23.1398 50.4847 23.098C51.9197 22.7061 52.36 21.0072 51.2866 19.9006C50.0006 18.5757 48.6805 17.284 47.3755 15.9781C44.7087 13.3113 42.0456 10.6396 39.3711 7.97941C38.5302 7.14328 37.398 7.11386 36.6236 7.87216C35.8672 8.61338 35.8482 9.79402 36.6369 10.5865C40.6239 14.5896 44.6223 18.5814 48.6188 22.5751C49.0032 22.9585 49.4644 23.173 50.1354 23.1559ZM9.12534 36.2065C8.22847 36.2113 7.51098 36.7503 7.27466 37.557C7.04593 38.3391 7.29839 38.9797 7.85169 39.5339C11.8027 43.484 15.7527 47.4349 19.7036 51.384C19.8033 51.4836 19.9105 51.5795 20.0254 51.6621C20.4686 51.9838 20.964 52.1148 21.5012 51.9942C22.2167 51.8329 22.7179 51.4105 22.9323 50.6959C23.1563 49.9471 22.9637 49.2951 22.417 48.7465C20.9013 47.2271 19.3828 45.7105 17.8653 44.1929C15.4442 41.7718 13.0203 39.3517 10.603 36.9269C10.1741 36.4969 9.70047 36.1904 9.12534 36.2065ZM44.7542 10.5381C46.062 11.8478 47.3803 13.1689 48.6976 14.4871C49.341 13.8579 50.0358 13.2182 50.6811 12.533C51.0674 12.123 51.0408 11.6333 50.6375 11.2167C49.7719 10.3217 48.8912 9.44097 47.9953 8.57732C47.5891 8.18535 47.1136 8.15214 46.7188 8.52512C46.0231 9.18187 45.3787 9.89272 44.7542 10.5381ZM10.4066 44.88C9.74698 45.5206 9.03802 46.167 8.38127 46.8617C8.01873 47.2451 8.03676 47.7139 8.40689 48.1002C9.28953 49.0218 10.1959 49.9205 11.1117 50.8098C11.4344 51.123 11.8909 51.2445 12.2278 50.9237C12.9605 50.2242 13.6268 49.4545 14.2816 48.7551C13.0231 47.4966 11.7115 46.185 10.4075 44.88H10.4066Z" fill="white"/>
<path d="M46.9104 26.4541C46.9066 27.3538 46.1493 27.7999 45.5286 27.4449C45.354 27.3453 45.2021 27.1982 45.0578 27.0539C41.6517 23.6515 38.2483 20.2472 34.8469 16.8401C34.7035 16.6958 34.5621 16.5411 34.4568 16.3684C34.2385 16.0087 34.3154 15.5247 34.6257 15.2456C34.9541 14.9514 35.3309 14.8954 35.7162 15.1156C35.8908 15.2153 36.0408 15.3652 36.185 15.5095C39.5912 18.9119 42.9974 22.3133 46.3932 25.7262C46.6361 25.9701 46.7984 26.2928 46.9095 26.4532L46.9104 26.4541Z" fill="white"/>
<path d="M32.5902 14.1701C32.0815 14.172 31.6458 13.7486 31.642 13.2475C31.6382 12.7473 32.071 12.3163 32.5798 12.3135C33.0923 12.3097 33.5175 12.7283 33.5204 13.237C33.5232 13.7467 33.1037 14.1672 32.5902 14.1691V14.1701Z" fill="white"/>
<path d="M15.7716 34.3398C16.1199 34.58 16.4312 34.7337 16.6647 34.9653C19.341 37.6236 22.0051 40.2943 24.6729 42.9621C25.454 43.7432 26.255 44.5072 27.0047 45.3167C27.2202 45.5493 27.41 45.9175 27.4034 46.2193C27.3872 46.9311 26.5549 47.286 25.9627 46.8827C25.8213 46.7859 25.6969 46.6597 25.5745 46.5372C22.1693 43.1339 18.765 39.7305 15.3626 36.3243C15.2297 36.1915 15.0389 36.0558 15.0057 35.8944C14.9431 35.5917 14.8757 35.2206 14.9962 34.9672C15.1158 34.7157 15.4651 34.5743 15.7716 34.3398Z" fill="white"/>
<path d="M14.0284 32.7435C14.0218 33.2551 13.5937 33.6728 13.0859 33.6642C12.5772 33.6557 12.1633 33.2257 12.1719 32.7132C12.1804 32.2063 12.6189 31.7754 13.1154 31.7858C13.6156 31.7963 14.0351 32.2357 14.0284 32.7435Z" fill="white"/>
</g>
<defs>
<clipPath id="clip0_2026_354">
<rect width="48.391" height="48.4061" fill="white" transform="translate(5.30444 5.52979)"/>
</clipPath>
</defs>
</svg>
