<svg width="179" height="59" viewBox="0 0 179 59" fill="#A1A7B3" xmlns="http://www.w3.org/2000/svg">
<g clip-path="url(#clip0_2028_1821)">
<path d="M43.2672 20.7544C36.7816 20.7743 30.2959 20.7743 23.8084 20.7562C23.1831 20.7562 23.0516 21.0192 23.0588 21.5723C23.0804 23.1738 23.0624 24.7752 23.0714 26.3766C23.0714 26.5743 23.1399 26.7702 23.1903 27.0459H37.7889C37.9331 29.6611 36.0914 33.6529 33.8478 35.5699C28.6794 39.9843 22.8137 40.5919 16.7299 38.1616C8.92151 35.0422 5.05246 26.3585 7.41678 18.014C10.2731 7.92478 22.1127 3.09871 31.1339 8.37274C32.2349 9.01658 33.2333 9.83453 34.0821 10.4312C35.5616 9.07099 37.0231 7.73072 38.58 6.29976C34.7272 2.62354 30.3572 0.532421 25.2753 0.0953363C18.5356 -0.483212 12.6338 1.53536 7.53932 6.04948C1.05726 11.7896 -1.58278 21.2604 1.01581 29.4888C4.46679 40.4141 15.7027 47.8772 28.2776 45.1931C39.2883 42.8426 45.5505 33.2539 44.0547 21.4817C43.9935 20.9956 43.8295 20.7544 43.2672 20.7562V20.7544Z" fill="white"/>
<path d="M138.1 17.2837H132.081V19.5598C131.855 19.4438 131.736 19.4129 131.659 19.3404C127.9 15.773 123.526 15.4302 119.05 17.3962C109.355 21.6564 107.158 34.2521 114.671 41.6916C119.672 46.6446 127.772 47.1415 131.794 42.4678C131.825 42.4315 131.904 42.437 132.066 42.3989C132.18 44.5245 132.284 46.6446 131.389 48.6015C130.9 49.6661 130.233 50.7706 129.358 51.5106C126.078 54.2782 120.854 53.5745 118.201 50.1159C117.698 49.4612 117.3 48.723 116.821 47.974C115.013 48.7321 113.249 49.472 111.324 50.2791C111.701 50.981 111.986 51.574 112.323 52.1344C117.28 60.3484 127.285 60.3212 132.706 56.4454C136.429 53.783 137.984 49.8547 138.072 45.4857C138.258 36.3033 138.154 27.1172 138.164 17.9312C138.164 17.7263 138.125 17.5213 138.1 17.2855V17.2837ZM128.394 38.9367C125.299 40.8247 120.983 39.9142 118.583 36.9344C115.956 33.6735 115.925 28.4231 118.565 25.1531C120.547 22.6992 123.135 21.6274 126.235 22.2621C129.28 22.886 131.124 24.9554 132.041 27.859C132.364 28.8819 132.448 29.9791 132.641 31.0437C132.457 34.3899 131.311 37.1575 128.394 38.9385V38.9367Z" fill="white"/>
<path d="M92.9918 16.241C84.5851 16.1902 78.1823 22.6867 78.1877 31.1436C78.3013 39.1943 84.358 45.8104 92.9936 45.7542C101.49 45.698 107.475 39.285 107.619 31.3431C107.781 22.3965 100.986 16.29 92.9918 16.2428V16.241ZM97.0861 38.6466C92.8855 41.2455 87.4054 39.5171 85.5366 34.9142C85.0284 33.6627 84.8698 32.2663 84.5509 30.9369C84.6266 30.9187 84.7004 30.9006 84.7761 30.8825C84.5761 26.8743 87.3116 23.2906 90.8383 22.4037C95.4246 21.2503 99.7135 23.9544 100.836 28.6916C101.78 32.6779 100.276 36.6734 97.0861 38.6484V38.6466Z" fill="white"/>
<path d="M60.9221 16.2865C52.1243 16.2992 46.2514 23.1293 46.3018 30.995C46.255 39.189 52.6469 45.6056 60.8248 45.7036C68.9791 45.8015 75.6432 39.3359 75.6378 30.9968C75.6342 23.3216 69.9577 16.2738 60.9221 16.2847V16.2865ZM65.9372 38.1389C64.4992 39.3377 62.771 39.909 60.9437 39.8909C55.9537 39.8419 52.146 35.306 52.7551 30.1372C53.2236 26.1653 55.4329 23.3397 58.8064 22.393C63.636 21.04 68.6151 24.5222 69.1071 29.5478C69.4405 32.9519 68.6277 35.8973 65.9354 38.1389H65.9372Z" fill="white"/>
<path d="M159.095 35.4277C162.327 34.0747 165.559 32.7181 168.794 31.3688C172.029 30.0194 175.267 28.6791 178.547 27.3189C178.423 26.9671 178.356 26.7077 178.244 26.4701C177.684 25.2695 177.201 24.0199 176.531 22.8846C172.315 15.748 163.467 14.0395 157.043 19.241C152.662 22.7885 151.219 27.6671 151.95 33.1171C153.554 45.0653 166.275 48.7433 174.309 43.2099C175.875 42.1308 177.17 40.7888 178.289 39.2018C176.603 38.0756 175.006 37.0073 173.355 35.9046C169.585 41.8171 161.184 40.8794 159.094 35.4277H159.095ZM164.046 22.1972C167.316 21.3757 170.492 23.1893 170.931 25.1117C166.673 26.8927 162.402 28.6791 158.104 30.4746C157.542 26.9671 160.351 23.124 164.044 22.1972H164.046Z" fill="white"/>
<path d="M142.552 44.746H148.874V1.58887H142.552V44.746Z" fill="white"/>
</g>
<defs>
<clipPath id="clip0_2028_1821">
<rect width="178.521" height="58.9684" fill="#A1A7B3" transform="translate(0.0263672)"/>
</clipPath>
</defs>
</svg>
