<svg width="24" height="25" viewBox="0 0 24 25" fill="none" xmlns="http://www.w3.org/2000/svg">
<path d="M7.88721 3.72171H5.93449C4.5537 3.72171 3.86331 3.72171 3.43436 4.15066C3.0054 4.57962 3.0054 5.27001 3.0054 6.65079V8.60352" stroke="#33363F" stroke-width="1.95272" stroke-linecap="round"/>
<path d="M7.88721 21.2962H5.93449C4.5537 21.2962 3.86331 21.2962 3.43436 20.8672C3.0054 20.4383 3.0054 19.7479 3.0054 18.3671V16.4144" stroke="#33363F" stroke-width="1.95272" stroke-linecap="round"/>
<path d="M15.698 3.72171H17.6507C19.0315 3.72171 19.7219 3.72171 20.1508 4.15066C20.5798 4.57962 20.5798 5.27001 20.5798 6.65079V8.60352" stroke="#33363F" stroke-width="1.95272" stroke-linecap="round"/>
<path d="M15.698 21.2962H17.6507C19.0315 21.2962 19.7219 21.2962 20.1508 20.8672C20.5798 20.4383 20.5798 19.7479 20.5798 18.3671V16.4144" stroke="#33363F" stroke-width="1.95272" stroke-linecap="round"/>
</svg>
