<svg width="174" height="35" viewBox="0 0 174 35" fill="none" xmlns="http://www.w3.org/2000/svg">
<g clip-path="url(#clip0_2026_206)">
<path d="M8.87148 34.8515C8.30129 34.6989 7.73111 34.5844 7.1736 34.3936C3.34706 33.1345 1.35776 30.2346 0.85093 26.4953C-0.226079 18.5588 1.52248 11.2074 6.5274 4.84807C9.04886 1.65567 12.3686 -0.226699 16.6513 0.167581C19.3755 0.421955 21.6309 1.64295 23.6582 3.38541C25.0139 4.55553 26.4077 5.67478 27.7761 6.81947L27.4594 7.35365C28.0042 6.69228 28.5364 6.03091 29.0939 5.38225C30.6904 3.53804 32.4009 1.83373 34.6817 0.854391C38.4955 -0.786323 43.1584 0.510986 46.4147 4.05951C50.292 8.29484 52.1545 13.4078 52.6867 19.004C52.9275 21.5096 52.9781 24.0915 52.6107 26.5589C52.0025 30.6543 49.9245 33.7831 45.5785 34.8515H42.2461C38.9897 34.1265 36.6456 32.0915 34.8844 29.4333C32.3249 25.5796 29.9428 21.6113 27.4847 17.694C27.2693 17.3506 27.0412 17.0199 26.7371 16.562C26.433 17.0707 26.2303 17.4014 26.0276 17.7448C24.2157 20.8482 22.4925 24.0152 20.5538 27.0422C18.3238 30.5271 15.891 33.8594 11.469 34.8515H8.84613H8.87148ZM48.1126 22.3236C47.7958 20.1741 47.6058 17.9992 47.1496 15.8752C46.4021 12.4284 45.1096 9.2233 42.5121 6.69228C39.7499 3.99591 36.4302 3.85601 33.6427 6.5015C32.3883 7.68434 31.4253 9.17243 30.3736 10.546C30.2216 10.7495 30.2343 11.2456 30.3736 11.4745C33.0978 15.8879 35.8094 20.3013 38.6096 24.6638C39.3952 25.8848 40.3074 27.0804 41.3591 28.0724C43.5385 30.1456 46.6175 29.3061 47.4537 26.4317C47.8338 25.1217 47.8972 23.7226 48.1126 22.3236ZM24.3297 12.2376C22.6065 10.457 21.0987 8.58737 19.2741 7.112C18.3111 6.33615 16.8287 5.94187 15.5616 5.87828C13.1415 5.75109 11.583 7.37909 10.2653 9.19786C8.06055 12.2249 6.98354 15.6717 6.47671 19.322C6.13461 21.8403 5.95722 24.3586 6.93286 26.8133C7.55372 28.3904 8.70676 29.1662 10.4046 29.1917C12.3052 29.2171 13.5596 28.0724 14.5226 26.7115C17.8043 22.0056 20.9847 17.2234 24.3424 12.2504L24.3297 12.2376Z" fill="#A1A7B3"/>
<path d="M158.627 34.8515C155.421 34.1011 152.785 32.5621 150.999 29.675C147.426 23.888 148.731 15.1884 153.685 11.2583C157.359 8.33299 164.594 8.09133 167.851 12.2376C167.939 12.3521 168.079 12.4157 168.332 12.6065V9.64302H173.401V34.3682H168.32V30.8324C166.508 33.2617 164.202 34.2283 161.718 34.8388H158.614L158.627 34.8515ZM168.231 21.9802C168.231 21.9802 168.32 21.9802 168.37 21.9802C168.231 20.5302 168.434 18.9404 167.876 17.6812C166.026 13.4713 160.033 12.3903 156.675 15.5445C154.179 17.8975 153.964 20.9372 154.458 24.0279C155.155 28.365 157.866 30.4254 162.212 30.1201C165.747 29.8785 168.231 27.2584 168.231 23.7862C168.231 23.1884 168.231 22.6034 168.231 22.0056V21.9802Z" fill="#A1A7B3"/>
<path d="M114.748 34.8516C113.988 34.6608 113.215 34.4827 112.467 34.2665C107.69 32.9056 104.371 28.5685 104.029 23.3157C103.813 19.8562 104.371 16.5875 106.474 13.7385C109.376 9.80843 114.342 8.09141 119.221 9.45231C124.099 10.8132 126.329 14.4762 127.127 19.1694C127.381 20.6702 127.368 22.2092 127.495 23.8499H109.312C109.781 26.4827 110.871 28.6194 113.303 29.5987C117.206 31.1759 120.767 30.2983 124.036 27.5129C124.948 28.6321 125.86 29.7514 126.823 30.9342C124.72 33.0455 122.148 34.063 119.347 34.6226C119.081 34.6735 118.828 34.7753 118.574 34.8516H114.761H114.748ZM109.338 19.9071H122.084C122.325 16.5621 119.981 13.9039 116.522 13.5477C112.911 13.1662 109.857 15.8117 109.325 19.9071H109.338Z" fill="#A1A7B3"/>
<path d="M141.217 34.8514C139.747 34.3045 138.138 33.9738 136.846 33.1598C134.818 31.8752 134.134 29.6622 134.045 27.3982C133.893 23.4427 133.919 19.4745 133.881 15.519C133.881 15.0484 133.881 14.5905 133.881 13.9927H129.091V9.68107H133.83V2.55859H139.025V9.60476H146.425V13.9418H139.063C139.063 14.883 139.063 15.7097 139.063 16.5237C139.063 19.4109 139.063 22.3107 139.063 25.1979C139.063 25.872 139.114 26.5461 139.253 27.1947C139.709 29.3824 140.888 30.2218 143.422 30.1582C144.41 30.1328 145.386 30.0056 146.501 29.9165C146.501 31.2011 146.539 32.4603 146.463 33.7067C146.463 33.9229 146.045 34.2409 145.778 34.3172C144.904 34.5461 144.005 34.6733 143.118 34.8387H141.204L141.217 34.8514Z" fill="#A1A7B3"/>
<path d="M81.6901 21.2678C85.2632 14.8195 88.7604 8.56185 92.2068 2.27881C92.6503 1.47753 93.1064 1.13413 94.044 1.17229C95.7419 1.26132 97.4398 1.19772 99.201 1.19772V34.1773H93.9047V9.55391C93.816 9.5412 93.7273 9.51576 93.6386 9.50304C93.4485 9.82101 93.2458 10.139 93.0557 10.4569C90.2555 15.4681 87.4553 20.4793 84.6804 25.5159C84.2876 26.2154 83.8315 26.4062 83.0332 26.5334C80.1316 26.9913 78.4971 25.9356 77.2047 23.2138C75.1394 18.8513 72.5799 14.7304 70.2231 10.5205C70.0331 10.1771 69.8303 9.84644 69.3995 9.54119V34.1773H64.0652V1.21044C66.0925 1.21044 68.1451 1.17229 70.1978 1.2486C70.5146 1.26132 70.8947 1.82094 71.1101 2.2025C74.3918 8.07854 77.6482 13.98 80.9045 19.8688C81.1326 20.2758 81.3733 20.6828 81.7028 21.2678H81.6901Z" fill="#A1A7B3"/>
</g>
<defs>
<clipPath id="clip0_2026_206">
<rect width="172.866" height="34.7348" fill="white" transform="translate(0.547058 0.116699)"/>
</clipPath>
</defs>
</svg>
