<svg width="207" height="45" viewBox="0 0 207 45" fill="none" xmlns="http://www.w3.org/2000/svg">
<g clip-path="url(#clip0_2026_236)">
<path d="M61.8862 35.3753H57.5951V9.42826C57.852 9.4156 58.1347 9.3903 58.4173 9.3903C60.0361 9.3903 61.6421 9.4156 63.2608 9.37765C63.9032 9.35235 64.1987 9.55476 64.43 10.1494C66.7425 15.9814 69.0936 21.8009 71.4318 27.6203C71.5475 27.9113 71.6759 28.2022 71.8687 28.645C72.0357 28.2529 72.1513 27.9998 72.2669 27.7342C74.6951 21.8894 77.1233 16.0447 79.5258 10.1873C79.7699 9.59272 80.0653 9.3397 80.7463 9.365C82.5192 9.4156 84.2922 9.37765 86.1165 9.37765V35.3627H81.6584V15.6146C81.5942 15.6019 81.53 15.5766 81.4529 15.564C81.3372 15.817 81.2216 16.0573 81.1188 16.3104C78.6521 22.4208 76.1726 28.5312 73.7315 34.6669C73.5003 35.2615 73.2176 35.5018 72.5624 35.4386C71.7659 35.3627 70.7895 35.6284 70.2242 35.2615C69.6846 34.9072 69.5561 33.9331 69.2735 33.2247C66.9609 27.595 64.6612 21.9527 62.3487 16.3104C62.2459 16.07 62.1303 15.8423 61.8862 15.6272V35.388V35.3753Z" fill="#A1A7B3"/>
<path d="M186.777 35.3499V20.3711H183.68V16.7656H186.764C186.764 15.918 186.777 15.159 186.764 14.3999C186.661 9.66846 190.4 6.67018 195.59 7.66961C195.834 7.72021 196.181 8.02383 196.194 8.2136C196.258 9.28893 196.22 10.3643 196.22 11.5028C195.641 11.3637 195.153 11.2119 194.665 11.136C192.764 10.8829 191.556 11.7559 191.35 13.6155C191.248 14.6023 191.338 15.6144 191.338 16.6771H197.954C197.954 15.5258 197.98 14.362 197.954 13.2107C197.941 12.7047 198.095 12.4643 198.609 12.3252C199.868 11.9836 201.114 11.5914 202.463 11.1866V16.7277H206.934V20.3079H202.502C202.489 20.6368 202.463 20.8898 202.463 21.1429C202.463 23.7869 202.463 26.431 202.463 29.075C202.463 31.9974 203.941 32.9082 206.716 31.7443C206.767 31.719 206.819 31.7317 206.973 31.7064C206.973 32.7817 206.986 33.857 206.947 34.9197C206.947 35.0842 206.703 35.3246 206.51 35.3752C204.725 35.9445 202.926 36.1089 201.127 35.4764C199.213 34.8059 198.301 33.3131 198.108 31.4281C197.954 29.9353 197.98 28.4171 197.967 26.9117C197.941 24.7484 197.967 22.5851 197.967 20.3711H191.325V35.3246H186.79L186.777 35.3499Z" fill="#A1A7B3"/>
<path d="M147.104 26.1526C146.975 27.0002 146.898 28.0629 146.641 29.075C145.626 33.0221 142.517 35.527 138.187 35.8053C136.838 35.8939 135.425 35.7927 134.115 35.4764C130.119 34.5149 127.678 31.251 127.563 26.8231C127.537 25.6466 127.64 24.4321 127.897 23.2809C128.783 19.3338 131.879 16.7024 136.029 16.4114C137.429 16.3102 138.894 16.3482 140.282 16.6138C143.892 17.3096 146.346 20.0422 146.872 23.7363C146.975 24.4701 147.014 25.2038 147.104 26.1653V26.1526ZM142.504 26.0261C142.324 25.0773 142.234 24.0146 141.9 23.0279C141.309 21.2314 139.986 20.194 138.059 20.0043C135.939 19.7892 134.089 20.3459 133.074 22.3068C131.815 24.7484 131.802 27.3039 132.997 29.7835C133.871 31.5799 135.759 32.4149 138.02 32.1998C140.102 31.9974 141.489 30.8841 142.029 28.8599C142.273 27.9744 142.337 27.0509 142.504 26.0135V26.0261Z" fill="#A1A7B3"/>
<path d="M163.625 26.2288C163.741 25.3433 163.805 24.445 163.985 23.5595C164.846 19.4606 167.878 16.7406 172.131 16.4117C173.531 16.2978 175.008 16.3231 176.383 16.6015C179.89 17.2973 182.023 19.5238 182.858 22.9143C183.359 24.8878 183.334 26.8993 182.858 28.8855C181.895 32.9338 178.734 35.5526 174.315 35.8182C172.966 35.8941 171.552 35.7929 170.242 35.4767C166.375 34.5405 163.972 31.4031 163.728 27.203C163.715 26.8867 163.728 26.5704 163.728 26.2541C163.703 26.2541 163.664 26.2541 163.638 26.2541L163.625 26.2288ZM168.161 26.115C168.443 27.2536 168.585 28.4554 169.034 29.5307C169.831 31.4537 171.694 32.3645 174.045 32.2127C176.1 32.0736 177.526 31.0109 178.117 29.0626C178.721 27.1017 178.747 25.1029 178.117 23.142C177.475 21.1685 175.959 20.0805 173.852 19.9919C171.514 19.8907 169.779 20.8142 168.996 22.7751C168.585 23.8125 168.443 24.9511 168.161 26.1276V26.115Z" fill="#A1A7B3"/>
<path d="M160.76 20.8268C159.283 20.4725 157.895 20.131 156.495 19.8273C156.187 19.7641 155.853 19.8273 155.532 19.8653C154.568 20.0045 153.861 20.5738 153.707 21.3202C153.514 22.1931 153.9 23.0027 154.812 23.4835C155.57 23.8883 156.379 24.1919 157.15 24.5588C157.895 24.9257 158.666 25.2546 159.36 25.71C162.559 27.8227 162.623 32.2379 159.45 34.4265C157.24 35.9573 154.735 36.0838 152.165 35.6537C151.318 35.5145 150.495 35.2615 149.673 34.9958C149.455 34.9199 149.185 34.6289 149.172 34.4139C149.121 33.1867 149.146 31.9469 149.146 30.5553C149.506 30.7704 149.737 30.9222 149.981 31.0487C151.69 31.9849 153.476 32.5795 155.467 32.2379C156.277 32.0988 156.97 31.7951 157.189 30.9096C157.407 30.0114 157.099 29.3029 156.187 28.7716C155.429 28.3288 154.594 27.9999 153.797 27.6203C153.142 27.3041 152.474 27.0257 151.844 26.6715C148.311 24.6347 148.144 19.9159 151.523 17.6134C153.502 16.2724 155.737 16.0827 158.024 16.3989C160.748 16.7658 160.748 16.8038 160.748 19.4605V20.7888L160.76 20.8268Z" fill="#A1A7B3"/>
<path d="M112.878 21.4592C109.024 19.3971 106.107 19.5362 104.129 21.7881C102.266 23.9135 102.125 28.025 103.859 30.2389C105.696 32.6047 108.458 32.7565 112.865 30.6817C112.865 31.9342 112.878 33.136 112.839 34.3378C112.839 34.5023 112.582 34.7427 112.403 34.8186C108.972 36.2861 105.529 36.4126 102.253 34.5023C99.1696 32.7059 97.9876 29.7835 98.0262 26.3677C98.0262 25.2924 98.1932 24.1918 98.4758 23.1671C99.6835 18.7266 103.692 16.0193 108.638 16.3355C109.859 16.4115 111.054 16.7657 112.261 17.006C112.724 17.0946 112.891 17.3982 112.878 17.879C112.839 19.0302 112.878 20.1941 112.878 21.4592Z" fill="#A1A7B3"/>
<path d="M116.27 16.8037H120.676V19.5995C120.676 19.5995 120.779 19.6375 120.831 19.6628C120.959 19.4224 121.087 19.182 121.229 18.9543C122.359 17.0061 124.312 16.1205 126.548 16.5254C127.036 16.6139 127.306 16.7657 127.28 17.335C127.241 18.5369 127.28 19.7513 127.28 20.9911C126.548 20.8014 125.918 20.599 125.276 20.4977C123.798 20.2574 122.642 20.8014 121.794 21.9906C121.01 23.0912 120.728 24.3436 120.728 25.6593C120.715 28.5943 120.728 31.5167 120.728 34.4517C120.728 34.7427 120.728 35.021 120.728 35.3626H116.295V16.8037H116.27Z" fill="#A1A7B3"/>
<path d="M94.9556 35.3752H90.5232V16.753C91.8722 16.753 93.234 16.7403 94.5958 16.7783C94.7243 16.7783 94.9299 17.1831 94.9427 17.4108C94.9813 18.6506 94.9556 19.8904 94.9556 21.1302C94.9556 25.5454 94.9556 29.9479 94.9556 34.3631V35.3625V35.3752Z" fill="#A1A7B3"/>
<path d="M92.7073 13.8685C91.1913 13.8432 90.035 12.7553 90.0478 11.351C90.0478 9.92145 91.2812 8.78286 92.7844 8.79551C94.3004 8.79551 95.4823 9.94675 95.4823 11.389C95.4823 12.8185 94.2747 13.8938 92.7073 13.8685Z" fill="#A1A7B3"/>
<path d="M44.4649 23.4961H23.3436V44.2942H44.4649V23.4961Z" fill="#A1A7B3"/>
<path d="M21.301 23.4961H0.179688V44.2942H21.301V23.4961Z" fill="#A1A7B3"/>
<path d="M21.301 0.673828H0.179688V21.472H21.301V0.673828Z" fill="#A1A7B3"/>
<path d="M44.4649 0.673828H23.3436V21.472H44.4649V0.673828Z" fill="#A1A7B3"/>
</g>
<defs>
<clipPath id="clip0_2026_236">
<rect width="206.793" height="43.6204" fill="white" transform="translate(0.179688 0.673828)"/>
</clipPath>
</defs>
</svg>
