<svg width="152" height="39" viewBox="0 0 152 39" fill="none" xmlns="http://www.w3.org/2000/svg">
<g clip-path="url(#clip0_2026_212)">
<path d="M0.413208 0.296267C4.26781 0.106549 6.84072 1.71441 8.13192 5.11986C10.0972 10.3134 12.0767 15.5212 14.512 20.6151V0.39587H20.7781V36.1388C20.6214 36.2669 20.5075 36.4376 20.3651 36.4661C16.1782 37.1586 13.3489 35.5033 11.8773 31.5002C10.3108 27.2316 8.73004 22.9487 6.66508 18.7511V38.0028C4.44346 38.3016 2.46393 38.572 0.413208 38.8566L0.413208 0.296267Z" fill="#A1A7B3"/>
<path d="M128.968 0.481436C129.41 0.310689 129.495 0.253774 129.58 0.253774C133.625 0.0545695 136.402 1.81421 137.912 5.53269C138.481 6.94135 139.079 8.36424 139.891 10.3563C141.116 7.6528 142.298 5.43309 143.138 3.08532C143.936 0.851387 145.189 -0.201551 147.638 0.182629C148.778 0.367605 149.96 0.211087 151.483 0.211087C148.963 5.80304 146.641 11.0677 144.178 16.2755C143.423 17.8691 143.394 19.2067 144.092 20.843C146.584 26.691 148.906 32.596 151.455 38.871C149.077 38.5864 147.054 38.4583 145.089 38.0172C144.477 37.875 143.879 36.9785 143.58 36.2955C142.255 33.2933 141.045 30.234 139.563 26.6341C138.225 29.5653 136.929 31.9415 136.032 34.46C135.277 36.5659 134.138 37.1777 132.044 36.6513C130.933 36.3667 129.723 36.4236 128.185 36.3098C130.549 31.0309 132.685 26.0507 135.035 21.1845C135.96 19.2636 136.06 17.6557 135.177 15.6779C132.984 10.712 131.062 5.64652 128.968 0.495665V0.481436Z" fill="#A1A7B3"/>
<path d="M27.2008 0.310547H44.6035V6.20131H33.6236V14.326H41.855V20.3306H33.6093V29.3944C37.2978 29.181 40.8438 28.9818 44.575 28.7683V34.6733C38.8501 35.0717 33.1109 35.4844 27.215 35.897V0.310547H27.2008Z" fill="#A1A7B3"/>
<path d="M78.9816 20.0744V33.7057H72.8295V0.324707H90.1752V6.20124H79.238V13.9987H87.5263V20.0744H78.9816Z" fill="#A1A7B3"/>
<path d="M94.6041 0.268066H100.756V28.3274C104.502 28.5693 107.948 28.797 111.608 29.0389V34.9154C106.026 34.6593 100.372 34.3889 94.6041 34.1186V0.268066Z" fill="#A1A7B3"/>
<path d="M55.555 6.24421H48.9899V0.367676H68.3009V6.28689H61.9351V33.8909C59.7562 33.9905 57.7767 34.0759 55.5693 34.1755V6.24421H55.555Z" fill="#A1A7B3"/>
<path d="M117.176 0.324707H123.286V35.7689C121.178 35.6266 119.256 35.4985 117.176 35.3562V0.324707Z" fill="#A1A7B3"/>
</g>
<defs>
<clipPath id="clip0_2026_212">
<rect width="151.056" height="38.7737" fill="white" transform="translate(0.413208 0.097168)"/>
</clipPath>
</defs>
</svg>
