<svg width="99" height="99" viewBox="0 0 99 99" fill="none" xmlns="http://www.w3.org/2000/svg">
<path d="M82.5 9.66573C82.5 6.23641 80.4374 4.13086 77.0856 4.12607C66.2802 4.12607 55.4748 4.12607 44.6693 4.12607C44.4209 4.12607 44.1724 4.11647 43.9287 4.15484C43.0427 4.28434 42.4614 4.94143 42.4567 5.80475C42.452 6.66808 43.0145 7.33955 43.9005 7.47864C44.1959 7.5266 44.5053 7.51222 44.81 7.51222C55.4748 7.51222 66.1442 7.51222 76.809 7.51222C78.7076 7.51222 79.1951 8.01582 79.1951 9.97749C79.1951 34.9611 79.1951 59.94 79.1951 84.9236C79.1951 86.8661 78.7029 87.3697 76.7856 87.3697C57.2139 87.3697 37.647 87.3697 18.0754 87.3697C16.1721 87.3697 15.6846 86.8661 15.6846 84.9092C15.6846 70.3047 15.6846 55.7001 15.6846 41.0907C15.6846 40.6974 15.6752 40.2946 15.5768 39.9204C15.3377 39.0283 14.5314 38.5823 13.6501 38.7885C12.8016 38.99 12.375 39.6423 12.375 40.7934C12.375 55.6809 12.375 70.5685 12.375 85.456C12.375 87.2978 13.0547 88.823 14.5736 89.8494C15.1549 90.2475 15.858 90.4537 16.5097 90.7463H78.3654C81.4781 89.4417 82.5 88.0843 82.5 85.197C82.5 60.0167 82.5 34.8412 82.5 9.66093V9.66573Z" fill="white"/>
<path d="M55.0575 28.0742C53.4871 22.7504 46.746 20.7215 42.5036 24.1844C39.419 26.7025 38.758 30.5107 39.6581 34.3765C39.9815 35.7722 40.8535 37.0336 41.4254 38.2518C39.9909 39.1871 38.2986 40.06 36.8876 41.2735C35.4531 42.5061 34.2858 44.0697 32.9967 45.499C32.9967 45.499 32.8889 45.379 32.7904 45.2495C30.8919 42.7651 29.6261 39.9881 29.0683 36.8801C28.8433 35.6187 28.0229 35.0096 26.9916 35.2542C26.0587 35.4748 25.604 36.3621 25.8196 37.5228C28.126 49.8252 39.6534 57.8445 51.6307 55.4751C63.6034 53.1106 71.4508 41.0672 68.9757 28.8608C66.8568 18.4002 57.7905 10.8605 47.3555 10.9084C46.2585 10.9132 45.1522 11.0187 44.0693 11.1962C43.1411 11.3497 42.602 12.1698 42.7098 13.0188C42.8223 13.8965 43.4974 14.472 44.449 14.472C44.7772 14.472 45.11 14.4049 45.4381 14.4193C47.3555 14.4912 49.3243 14.3234 51.1854 14.7071C62.3893 17.0093 68.8725 28.9567 64.9816 39.9785C64.2503 42.0505 63.1956 43.9354 61.7189 45.6764C59.6657 42.1799 56.7873 39.7962 53.159 38.3238C53.5902 37.7242 53.9981 37.2542 54.3028 36.7266C55.8873 33.9736 55.9388 31.0383 55.0669 28.079L55.0575 28.0742ZM42.6536 30.6354C42.7708 27.9111 44.8709 25.8104 47.4492 25.82C50.0369 25.8295 52.1089 27.9255 52.2308 30.6546C52.2448 30.9615 52.2308 31.2733 52.2308 31.585C52.2355 34.5299 51.0073 36.4436 48.6962 37.0959C45.8179 37.9065 42.9395 35.8393 42.677 32.7457C42.6161 32.0455 42.6255 31.3356 42.6583 30.6354H42.6536ZM59.2391 48.0793C52.8683 53.8972 42.1801 53.9931 35.6172 48.1225C38.1767 43.3598 42.0957 40.7219 47.4164 40.7123C52.7371 40.7027 56.6655 43.3263 59.2391 48.0793Z" fill="white"/>
<path d="M25.8665 31.8729C33.3155 31.9257 39.4612 25.6953 39.494 18.0549C39.5315 10.4289 33.4327 4.15061 25.965 4.12663C18.5114 4.10745 12.3844 10.357 12.375 17.9926C12.3703 25.5898 18.4223 31.8202 25.8618 31.8729H25.8665ZM25.8993 7.51758C31.5388 7.49839 36.1703 12.1987 36.1891 17.9638C36.2078 23.7337 31.6138 28.4676 25.9743 28.4916C20.3349 28.5107 15.7034 23.8104 15.6846 18.0453C15.6658 12.2755 20.2599 7.54156 25.8993 7.51758Z" fill="white"/>
<path d="M62.6846 61.9981C62.4643 61.9789 62.244 61.9885 62.0236 61.9885C54.6356 61.9885 47.2523 61.9885 39.8643 61.9885C39.6159 61.9885 39.3674 61.9789 39.1237 62.0077C38.2095 62.1276 37.5767 62.8326 37.5907 63.7007C37.6048 64.5497 38.2048 65.2164 39.0862 65.3411C39.358 65.3794 39.6346 65.365 39.9112 65.365C43.5771 65.365 47.243 65.365 50.9088 65.365C54.0497 65.365 57.1905 65.365 60.336 65.365C61.1095 65.365 61.883 65.3938 62.6518 65.3554C63.6878 65.3027 64.3441 64.612 64.33 63.6528C64.316 62.7271 63.6784 62.0748 62.6846 61.9933V61.9981Z" fill="white"/>
<path d="M62.3189 71.4659C58.5452 71.4611 54.7668 71.4659 50.9931 71.4659C48.9258 71.4659 46.8585 71.4659 44.7912 71.4659C43.0004 71.4659 41.2097 71.4467 39.4189 71.4755C38.0688 71.4946 37.2391 72.6409 37.7219 73.7968C38.0923 74.6745 38.8423 74.8616 39.7002 74.8568C47.196 74.8472 54.6918 74.8568 62.1876 74.8472C62.4877 74.8472 62.7971 74.8376 63.0877 74.7657C63.9456 74.5498 64.4144 73.8208 64.3112 72.9287C64.1987 71.9887 63.5049 71.4707 62.3189 71.4659Z" fill="white"/>
<path d="M32.1717 62.0028C31.295 61.998 30.5497 62.7606 30.545 63.6719C30.545 64.5832 31.2763 65.3554 32.1576 65.3602C33.0295 65.365 33.7889 64.5928 33.7936 63.6863C33.7983 62.7846 33.053 62.0028 32.1763 61.998L32.1717 62.0028Z" fill="white"/>
<path d="M30.5403 73.1349C30.5309 74.0462 31.2575 74.8232 32.1389 74.8376C33.0108 74.852 33.7749 74.0798 33.789 73.1781C33.803 72.2764 33.0624 71.4946 32.181 71.4754C31.3044 71.461 30.5497 72.2236 30.5403 73.1301V73.1349Z" fill="white"/>
<path d="M12.389 34.0551C12.375 34.928 13.1485 35.7386 14.011 35.753C14.8642 35.7673 15.6564 34.976 15.6705 34.0935C15.6846 33.2205 14.9111 32.41 14.0485 32.3956C13.1953 32.3812 12.4031 33.1726 12.389 34.0551Z" fill="white"/>
<path d="M22.585 22.6161C23.7101 23.7576 24.5023 23.7624 25.6227 22.6161C27.5775 20.6256 29.523 18.6304 31.4684 16.6351C31.6606 16.4385 31.8528 16.2275 32.0028 15.9924C32.4388 15.321 32.3497 14.448 31.82 13.8965C31.2809 13.3401 30.4324 13.2394 29.7761 13.6854C29.5042 13.8725 29.2651 14.1123 29.0308 14.3473C27.4135 15.9972 25.7962 17.6519 24.0523 19.4409C23.4804 18.8174 22.9929 18.2419 22.4631 17.7143C21.5865 16.8366 20.6208 16.7886 19.913 17.5464C19.2473 18.2611 19.3223 19.2443 20.1333 20.098C20.9396 20.947 21.7646 21.7767 22.585 22.6113V22.6161Z" fill="white"/>
</svg>
