<svg width="91" height="99" viewBox="0 0 91 99" fill="none" xmlns="http://www.w3.org/2000/svg">
<path d="M90.8655 78.1343C90.8551 74.862 88.8383 72.8112 85.5817 72.7563C85.0089 72.7458 84.4387 72.7563 83.8056 72.7563C83.8056 71.3909 83.837 70.185 83.8004 68.9792C83.6827 65.1707 80.1541 62.4503 76.4868 63.4443C75.4013 63.7372 74.4308 64.4566 73.6147 64.8751C72.1211 64.2107 70.6642 63.562 69.2072 62.9133L69.0006 63.1382V61.8853C69.0006 42.0501 68.9849 22.215 69.0267 2.37982C69.0319 0.538341 68.5114 -0.790455 66.7824 -1.53333H2.56077C0.852687 -0.704136 0.366166 0.676975 0.376629 2.53415C0.436791 13.3555 0.405401 24.1794 0.408017 35.0007C0.408017 35.2937 0.392317 35.5919 0.418474 35.8822C0.49433 36.7245 1.09595 37.3052 1.87544 37.3078C2.65493 37.3078 3.25916 36.7297 3.33763 35.8874C3.36379 35.5945 3.34811 35.2989 3.34811 35.0059C3.34811 24.216 3.34811 13.4261 3.34811 2.63616V1.46431H66.0657C66.0657 1.90114 66.0657 2.28304 66.0657 2.66755C66.0657 14.339 66.0657 26.013 66.0657 37.6845C66.0657 46.1516 66.0683 54.6214 66.0526 63.0885C66.0526 63.4783 66.0029 64.0485 65.7544 64.229C63.688 65.7435 63.0995 67.823 63.2015 70.2583C63.2747 71.9794 63.2145 73.7058 63.2145 75.4845H36.6282C36.6282 73.2454 36.6752 71.0639 36.6177 68.8824C36.5235 65.2674 33.1021 62.5445 29.6049 63.392C28.4226 63.6797 27.3475 64.4121 26.1417 64.9771C24.2923 63.2533 22.014 62.602 19.4663 63.7895C16.9264 64.9745 15.9298 67.1194 16.0449 69.8607C16.0841 70.7919 16.0501 71.7283 16.0501 72.7537C15.459 72.7537 15.0091 72.7537 14.5565 72.7537C10.9468 72.772 8.99811 74.7259 8.99288 78.3331C8.99288 80.0568 8.99288 81.7806 8.99288 83.5567H3.34549V82.3142C3.34549 69.2355 3.34549 56.1568 3.34549 43.0781C3.34549 41.8383 2.82233 41.1843 1.86759 41.1896C0.939001 41.1948 0.413237 41.833 0.413237 42.9996C0.410622 56.4367 0.408006 69.8764 0.413237 83.3134C0.413237 85.4034 1.61909 86.5726 3.71692 86.5726C5.41453 86.5726 7.11215 86.536 8.80715 86.5726C9.12889 86.5805 9.56834 86.7793 9.74359 87.033C10.837 88.6181 12.3227 89.3793 14.2296 89.3558C14.8077 89.3479 15.3831 89.3558 16.0606 89.3558C16.0606 90.7238 16.0371 91.9584 16.0658 93.1931C16.1103 95.079 16.9029 96.6302 18.4305 97.7026C19.1864 98.2336 20.1176 98.5109 20.9703 98.9032H22.9295C24.1014 98.3278 25.2732 97.7523 26.3352 97.2318C27.4312 97.7628 28.6057 98.333 29.7828 98.9032H31.742C32.4848 98.5815 33.2853 98.3513 33.9549 97.9197C35.697 96.8028 36.5942 95.147 36.6282 93.0754C36.6648 90.9566 36.636 88.8352 36.636 86.5805C37.0598 86.5805 37.405 86.5805 37.7529 86.5805C40.591 86.5805 43.4291 86.5857 46.2672 86.5779C47.439 86.5753 48.1034 86.0599 48.1348 85.168C48.1688 84.2472 47.4495 83.6456 46.2646 83.643C43.1021 83.6352 39.9423 83.6404 36.7092 83.6404V78.5554H63.1387V83.5855C62.8117 83.6038 62.4664 83.6352 62.1238 83.6378C59.2857 83.643 56.445 83.5959 53.6095 83.677C53.0524 83.6927 52.3069 84.0563 52.0035 84.501C51.3652 85.4426 52.1814 86.5622 53.4552 86.5726C56.2933 86.5962 59.1314 86.5805 61.9695 86.5805C62.3252 86.5805 62.6836 86.5805 63.2172 86.5805C63.2172 87.0722 63.2172 87.5143 63.2172 87.9537C63.2172 89.5546 63.2067 91.158 63.2198 92.7589C63.2459 95.7722 64.7578 97.7994 67.6378 98.7201C67.7529 98.7567 67.8523 98.8431 67.9595 98.9059H70.1123C71.2789 98.3252 72.4481 97.7445 73.4709 97.237C74.6113 97.7811 75.7884 98.3435 76.9655 98.9059H78.9247C79.0084 98.8562 79.0842 98.7855 79.1732 98.7594C82.2728 97.8334 83.803 95.7957 83.8135 92.5705C83.8161 91.5347 83.8135 90.4989 83.8135 89.3558C84.4988 89.3558 85.0769 89.3636 85.6576 89.3558C88.7913 89.3087 90.8498 87.237 90.8681 84.106C90.8786 82.1128 90.876 80.1196 90.8681 78.1264L90.8655 78.1343ZM16.0057 86.3581C15.1346 86.3581 14.2871 86.4628 13.4762 86.3294C12.5529 86.1777 11.9748 85.4976 11.9565 84.5428C11.9146 82.2253 11.9146 79.9077 11.9565 77.5928C11.9748 76.5648 12.7255 75.8272 13.7561 75.7409C14.465 75.6807 15.1817 75.7304 16.0057 75.7304V86.3581ZM24.873 92.7641C24.873 94.4329 23.879 95.678 22.3907 95.9344C21.0593 96.1646 19.6808 95.3903 19.1995 94.0667C19.0373 93.6221 18.9981 93.112 18.9955 92.6307C18.9798 88.7777 18.9876 84.9247 18.9876 81.0717C18.9876 77.2187 18.985 73.3658 18.9876 69.5128C18.9902 67.5144 20.1542 66.1803 21.8911 66.162C23.6489 66.1437 24.873 67.5222 24.8756 69.5494C24.8783 77.2868 24.8809 85.0267 24.8756 92.7641H24.873ZM33.6855 93.0152C33.6776 94.5219 32.5947 95.7303 31.1665 95.9448C29.7592 96.1567 28.3572 95.2543 27.9439 93.8287C27.8367 93.4599 27.8183 93.0571 27.8157 92.6699C27.8079 84.9326 27.8079 77.1952 27.8131 69.4578C27.8131 67.4987 29.0425 66.1463 30.7768 66.162C32.5084 66.1777 33.6907 67.5274 33.6933 69.5102C33.6985 73.3632 33.6933 77.2161 33.6933 81.0665H33.6907C33.6907 85.0503 33.7064 89.034 33.6828 93.0152H33.6855ZM72.0374 92.8478C72.0296 94.4512 71.0068 95.6806 69.5603 95.9344C68.2263 96.1698 66.8557 95.3929 66.3587 94.0693C66.2148 93.6822 66.1599 93.2428 66.1573 92.8269C66.1468 84.9796 66.1494 77.1324 66.1494 69.2852C66.1494 67.1612 67.4677 66.3556 69.1 66.1908C70.6956 66.0312 72.027 67.5065 72.0374 69.3061C72.0584 73.2297 72.0427 77.1534 72.0427 81.077C72.0427 85.0006 72.0557 88.9242 72.0374 92.8478ZM80.8682 92.7667C80.8682 94.4356 79.8716 95.678 78.3832 95.9344C77.0518 96.1646 75.6733 95.3903 75.1946 94.0641C75.0325 93.6194 74.9932 93.1094 74.9906 92.6281C74.9749 88.7751 74.9828 84.9221 74.9828 81.0691C74.9828 77.2161 74.9801 73.3632 74.9828 69.5102C74.9854 67.5117 76.152 66.1777 77.8888 66.162C79.6492 66.1463 80.8708 67.5248 80.8708 69.552C80.8734 77.2894 80.876 85.0294 80.8708 92.7667H80.8682ZM87.9124 84.3911C87.8914 85.5603 87.1015 86.332 85.9375 86.4026C85.2652 86.4418 84.5878 86.4105 83.8606 86.4105V75.7487C84.6819 75.7487 85.4614 75.6833 86.2226 75.7644C87.1957 75.8664 87.894 76.6851 87.9097 77.7367C87.9437 79.9548 87.9464 82.1756 87.9097 84.3937L87.9124 84.3911Z" fill="white"/>
<path d="M30.9783 22.6022C31.2974 22.6519 31.6296 22.6309 31.9539 22.6309C36.0606 22.6309 40.1647 22.6309 44.2715 22.6309C48.3782 22.6309 52.613 22.6309 56.7851 22.6309C57.0781 22.6309 57.3737 22.644 57.664 22.6126C58.4488 22.5263 58.9196 22.0843 58.9771 21.2891C59.0399 20.4442 58.5979 19.9263 57.7948 19.7432C57.4835 19.6725 57.1461 19.6909 56.8218 19.6909C48.5116 19.6909 40.2014 19.6882 31.8938 19.6909C31.5066 19.6909 31.1012 19.6961 30.7376 19.8033C30.0209 20.0152 29.6887 20.5541 29.7489 21.2969C29.809 22.045 30.2459 22.4871 30.9783 22.5996V22.6022Z" fill="white"/>
<path d="M58.9328 41.8828C58.7497 41.3937 58.2004 41.0039 57.7426 40.6691C57.5491 40.5279 57.1724 40.6325 56.8794 40.6325C52.7073 40.6325 48.5378 40.6325 44.3657 40.6325C40.1936 40.6325 36.0241 40.6325 31.852 40.6325C31.5905 40.6325 31.3289 40.6168 31.0699 40.6456C30.2878 40.7345 29.8196 41.174 29.7516 41.9665C29.6836 42.7643 30.0917 43.2849 30.8345 43.4967C31.1693 43.5935 31.5434 43.5726 31.9017 43.5726C40.2119 43.5752 48.5221 43.5778 56.8323 43.57C57.2483 43.57 57.6903 43.5543 58.0774 43.4209C58.7837 43.175 59.1839 42.5577 58.9328 41.8854V41.8828Z" fill="white"/>
<path d="M29.7567 28.3044C29.8744 29.1258 30.4394 29.5234 31.5747 29.526C35.8435 29.5338 40.1124 29.5286 44.3813 29.5286C48.488 29.5286 52.5921 29.5286 56.6988 29.5286C58.3389 29.5286 58.985 29.1179 58.9902 28.0769C58.9955 27.0332 58.3154 26.5859 56.7172 26.5859C48.4723 26.5859 40.2301 26.5859 31.9853 26.5859C31.6296 26.5859 31.2634 26.5807 30.9155 26.6513C30.0837 26.8187 29.639 27.4779 29.7567 28.3018V28.3044Z" fill="white"/>
<path d="M57.6639 47.5275C57.4416 47.4935 57.2088 47.5118 56.9812 47.5118C48.5742 47.5118 40.1646 47.5118 31.7576 47.5118C31.4961 47.5118 31.2293 47.483 30.9781 47.5353C30.2248 47.6949 29.7618 48.1474 29.7461 48.9505C29.7304 49.7535 30.1751 50.2322 30.9232 50.41C31.2345 50.4833 31.5719 50.4493 31.8963 50.4493C36.0344 50.4493 40.1751 50.4493 44.3132 50.4493C48.4513 50.4493 52.6574 50.4493 56.8269 50.4493C57.1198 50.4493 57.4207 50.4781 57.7058 50.4257C58.5088 50.2766 58.998 49.8032 58.9849 48.9557C58.9718 48.1082 58.4748 47.6504 57.6639 47.5223V47.5275Z" fill="white"/>
<path d="M11.177 47.0985C11.98 48.0402 12.8092 48.9635 13.6619 49.8607C14.4362 50.6769 15.2758 50.6638 16.0161 49.8294C16.5785 49.1963 17.0885 48.5189 17.6195 47.8571C19.4192 45.6232 21.2292 43.3999 23.0106 41.1503C23.8633 40.0726 23.4631 38.6863 22.252 38.6366C21.7393 38.6157 21.054 38.9793 20.7087 39.3899C18.7155 41.7572 16.8008 44.1898 14.7762 46.7035C14.2426 46.1202 13.8005 45.5971 13.3192 45.1184C12.6496 44.454 11.8518 44.4226 11.2293 44.9955C10.6303 45.5474 10.5806 46.3923 11.1796 47.0959L11.177 47.0985Z" fill="white"/>
<path d="M13.4554 28.7283C14.4886 29.8479 15.3021 29.8217 16.2752 28.6211C18.4933 25.8798 20.701 23.128 22.9113 20.3815C23.0552 20.2036 23.2017 20.0231 23.3063 19.8243C23.683 19.1129 23.5365 18.4694 22.927 17.9881C22.3123 17.5042 21.6453 17.5356 21.0568 18.0666C20.769 18.3281 20.5362 18.6499 20.2903 18.9559C18.4672 21.2133 16.6492 23.4733 14.779 25.7961C14.3134 25.2912 13.9027 24.8335 13.479 24.3888C12.7466 23.6224 11.8834 23.5073 11.2425 24.0775C10.5729 24.6739 10.6095 25.5685 11.355 26.4056C12.0482 27.1877 12.7492 27.9645 13.4554 28.7309V28.7283Z" fill="white"/>
</svg>
