<svg width="99" height="98" viewBox="0 0 99 98" fill="none" xmlns="http://www.w3.org/2000/svg">
<path d="M98.8712 87.2665C97.473 82.0416 94.4084 79.6867 89.0022 79.6867C87.5067 79.6867 86.0113 79.6867 84.4159 79.6867C84.5526 79.2636 84.642 78.9561 84.7523 78.6564C85.8667 75.6445 86.9995 72.6352 88.1007 69.618C89.0337 67.0581 88.4634 65.8044 85.9114 64.9082C81.5564 63.3759 77.1935 61.8752 72.8254 60.385C72.2735 60.1957 71.966 59.9329 71.8556 59.3284C71.2826 56.1982 70.6624 53.0785 70.071 49.9509C69.9554 49.3411 69.7136 48.6972 69.8134 48.1164C70.2629 45.5039 70.8122 42.9072 71.3299 40.2869C72.2235 40.2974 72.7098 40.5234 72.6625 41.53C72.5836 43.1359 72.6335 44.7496 72.644 46.3581C72.6624 49.5645 74.8885 51.9299 77.89 51.9457C80.9677 51.9615 83.2542 49.6066 83.2647 46.3896C83.2753 43.3356 83.27 40.279 83.2647 37.225C83.2647 34.3655 81.9559 32.5494 79.2409 31.6216C76.3604 30.636 73.4772 29.6583 70.6019 28.6622C70.2734 28.5492 69.8765 28.4151 69.6847 28.1602C68.8988 27.1221 68.1787 26.034 67.4034 24.917C69.4113 23.4478 70.8332 21.6212 71.6637 19.395C72.5416 17.0428 72.9883 14.5801 72.9331 12.0623C72.828 7.17902 70.7938 3.48372 66.2364 1.38376C64.4597 0.563755 62.5806 0.398176 60.6646 0.463882C57.4765 0.569011 54.3962 0.159007 51.492 -1.26812C50.5064 -1.75172 49.8284 -1.45998 49.3159 -0.453372C48.2015 1.74646 47.5523 4.65328 50.4013 7.7362C48.5589 10.6378 47.7494 13.768 48.5642 17.1978C49.371 20.5883 51.4132 23.1061 54.2885 25.0641C53.3844 26.4808 52.4093 27.7765 51.6944 29.2036C50.9611 30.6623 49.9703 31.2011 48.3618 31.0302C47.6259 30.9514 47.1791 30.7674 46.7849 30.1577C45.8755 28.7542 44.9083 27.3875 43.9516 26.0156C42.0961 23.3584 38.8844 22.6987 36.3797 24.4465C33.8881 26.1864 33.4045 29.4428 35.2574 32.0999C36.8554 34.3865 38.5506 36.6073 40.054 38.9544C41.4154 41.0806 43.1947 42.0872 45.7204 41.8927C47.0766 41.7876 48.4485 41.8743 49.8888 41.8743C49.8888 43.651 49.9256 45.291 49.8651 46.9284C49.8494 47.3621 49.6339 47.8877 49.3316 48.1952C47.5628 49.9982 45.773 51.7854 43.928 53.5095C42.0593 55.2573 41.1946 57.3546 41.2314 59.9119C41.284 63.6229 41.2288 67.3366 41.2603 71.0477C41.2656 71.71 41.0684 72.0044 40.435 72.2462C37.4757 73.3763 35.4283 75.4132 34.5399 78.5172C34.4322 78.8904 34.3586 79.2715 34.2718 79.6473H28.1744C27.8958 73.4946 24.7866 69.7467 18.8021 68.4694V41.7823C19.7325 42.308 20.5446 42.7837 21.3725 43.2305C24.2189 44.7654 27.625 43.8402 29.1363 41.1305C30.6212 38.4708 29.6251 35.5114 26.671 33.8267C23.2832 31.8975 19.8902 29.9763 16.4997 28.0524C13.1671 26.1601 9.85821 24.2205 6.49144 22.3886C3.77648 20.9115 0.37027 21.9655 -1.08314 24.6173C-2.51553 27.2324 -1.55358 30.1892 1.26388 31.8029C3.05371 32.8279 4.83303 33.8792 6.65702 34.8438C7.40081 35.238 7.62682 35.7111 7.61893 36.5416C7.57162 40.7468 7.5953 44.952 7.60318 49.1572C7.60318 49.5803 7.52959 50.1007 7.73722 50.4056C8.03947 50.8445 8.54145 51.3517 9.00928 51.4122C9.42717 51.4647 10.0185 51.0363 10.3444 50.6579C10.5757 50.3898 10.5389 49.8484 10.5389 49.4305C10.552 45.7194 10.5468 42.0057 10.5468 38.2947V37.0909C12.1474 37.9977 13.5509 38.8335 14.9911 39.593C15.5904 39.9084 15.798 40.2842 15.7954 40.9676C15.7717 49.8037 15.7796 58.6398 15.777 67.4786C15.777 67.794 15.7454 68.1093 15.7297 68.4352H10.5468V67.3261C10.5468 64.238 10.5468 61.1498 10.5468 58.0616C10.5468 57.7331 10.5547 57.3993 10.4995 57.0786C10.3655 56.3007 9.89498 55.8434 9.09337 55.8355C8.29438 55.825 7.80028 56.2534 7.65573 57.0392C7.59791 57.3599 7.60055 57.6937 7.60055 58.0196C7.59792 61.1393 7.60054 64.2616 7.59529 67.3813C7.59529 67.7256 7.5585 68.0726 7.53484 68.4826C6.02624 68.4826 4.62012 68.4826 3.21664 68.4826C0.36501 68.4826 -0.862351 69.7021 -0.864979 72.5458C-0.867607 79.6079 -0.864979 86.6726 -0.864979 93.7346C-0.864979 96.6336 0.370278 97.8662 3.26133 97.8662C29.9826 97.8662 56.7038 97.8662 83.4224 97.8662C85.6512 97.8662 87.8852 97.9398 90.1113 97.8426C93.9748 97.6743 96.716 95.7531 98.2982 92.2234C98.6162 91.5138 98.7713 90.7306 99 89.9815V87.419C98.9579 87.3717 98.8922 87.3296 98.8765 87.2744L98.8712 87.2665ZM49.8073 38.8466C47.9019 38.8466 45.9885 38.8834 44.0804 38.8124C43.7466 38.7993 43.3471 38.3945 43.1159 38.0739C41.2419 35.4667 39.3838 32.849 37.5545 30.2102C36.7214 29.0091 36.9947 27.6083 38.1222 26.8461C39.2024 26.1154 40.577 26.3756 41.3996 27.5321C42.6139 29.2404 43.8097 30.9645 44.9609 32.7176C45.5417 33.6059 46.2724 34.029 47.3316 33.9686C48.1148 33.9239 48.9006 33.9607 49.81 33.9607V38.8519L49.8073 38.8466ZM81.4854 66.4246C82.8915 66.9398 84.1452 67.4024 85.5119 67.9043C85.4067 68.267 85.3305 68.6035 85.2123 68.9215C83.998 72.2041 82.7864 75.4894 81.5353 78.7589C81.3987 79.1164 80.9782 79.6578 80.7521 79.6289C80.2712 79.5658 79.622 79.2977 79.4144 78.914C78.5681 77.3423 78.208 75.5709 78.7258 73.8731C79.4853 71.3815 80.5235 68.974 81.4854 66.4246ZM71.3851 62.9974C73.4956 63.6939 75.6008 64.4088 77.706 65.1184C78.0109 65.2209 78.3105 65.3366 78.6969 65.4785C77.9767 67.3577 77.275 69.179 76.5496 71.0714C73.3353 69.9675 70.1893 68.8873 67.0459 67.8071C65.9342 67.426 64.7751 67.1369 63.7238 66.627C63.0694 66.309 62.3966 65.7597 62.0444 65.1394C61.1455 63.5494 60.4228 61.862 59.6396 60.2299C61.1324 59.2443 62.6436 58.3823 63.9945 57.3204C65.3218 56.277 66.4887 55.0286 67.7923 53.8118C68.2207 55.9879 68.6781 58.1615 69.0723 60.3455C69.3193 61.7175 70.0789 62.569 71.3825 63.0001L71.3851 62.9974ZM68.7043 31.1564C72.0212 32.2655 75.3301 33.3983 78.6312 34.5494C79.785 34.9516 80.3001 35.7164 80.3132 36.928C80.329 38.5338 80.3159 40.1423 80.3159 41.7482C80.3159 43.3225 80.329 44.8968 80.3106 46.4711C80.2948 47.9429 79.3382 48.96 77.9846 48.9837C76.6416 49.0073 75.6245 48.0007 75.6034 46.5316C75.5719 44.4342 75.5982 42.3343 75.5929 40.2343C75.5903 38.8177 75.2802 38.3814 73.9555 37.9241C71.7005 37.1461 69.4323 36.3997 67.1905 35.585C65.7187 35.0488 65.1378 33.5271 65.8369 32.2366C66.3783 31.2352 67.5321 30.7648 68.7043 31.159V31.1564ZM51.5131 2.10916C51.6024 2.09864 51.7128 2.05396 51.789 2.0855C54.7064 3.24718 57.7525 3.45481 60.8538 3.43904C62.047 3.43379 63.3112 3.50475 64.4256 3.88584C68.5046 5.28406 70.6282 9.20538 69.8134 13.7995C69.0749 13.1083 68.4284 12.5616 67.8475 11.9519C65.9184 9.92026 63.624 8.7507 60.7828 8.53519C58.1914 8.33807 55.6841 7.68101 53.4396 6.28279C51.6208 5.15002 51.0531 3.8911 51.5131 2.10916ZM51.2082 14.3883C51.2634 12.6142 51.7864 10.9794 52.885 9.41039C55.6341 10.7166 58.4963 11.3159 61.4452 11.6102C63.2718 11.7942 64.7357 12.7666 65.8291 14.1675C66.8068 15.4238 67.6162 16.822 68.4126 18.2097C68.5887 18.5172 68.5361 19.1086 68.3574 19.445C66.5229 22.8643 62.9091 24.5017 58.9667 23.7579C54.5933 22.93 51.0768 18.7012 51.2108 14.3883H51.2082ZM52.8219 33.7531C52.8245 33.2327 52.9928 32.6492 53.2635 32.2051C54.4541 30.247 55.713 28.3258 56.9877 26.3257C59.4346 27.0879 61.8814 27.0485 64.3309 26.3546C64.5097 26.3047 64.8356 26.465 64.967 26.6279C65.3744 27.1326 65.7213 27.6871 66.1392 28.289C63.7238 29.4218 62.3572 31.2379 62.6358 33.9003C62.9906 37.3117 65.6135 38.4103 68.5388 39.1436C68.0262 41.735 67.5321 44.2292 67.0328 46.7602H52.8798C52.864 46.4107 52.8351 46.09 52.8351 45.7694C52.8219 41.7639 52.7956 37.7559 52.8219 33.7505V33.7531ZM45.9044 55.6988C47.7889 53.9221 49.605 52.0719 51.4789 50.2847C51.7548 50.0218 52.199 49.7958 52.567 49.7932C56.9903 49.759 61.4136 49.7722 65.8369 49.7748C65.9604 49.7748 66.084 49.8011 66.4861 49.8484C65.7712 50.9417 65.2903 52.0745 64.4703 52.8446C63.0037 54.227 61.4241 55.5385 59.7236 56.6135C57.2373 58.1878 54.6275 59.5755 52.0256 60.9527C50.4197 61.8016 49.6943 62.9764 49.7889 64.8267C49.9046 67.0791 49.8152 69.3394 49.8152 71.6627H44.1882C44.1882 71.2921 44.1882 70.9689 44.1882 70.6482C44.1882 67.037 44.2145 63.4258 44.175 59.8146C44.1566 58.1667 44.698 56.8316 45.8991 55.6988H45.9044ZM37.5782 78.709C38.3929 76.454 40.8424 74.7062 43.2367 74.6904C45.3893 74.6747 47.5444 74.6878 49.8231 74.6878V79.6052H37.3705C37.4389 79.3004 37.4783 78.9929 37.5808 78.7116L37.5782 78.709ZM2.83819 29.2667C2.27575 28.9434 1.68965 28.4362 1.42157 27.8685C0.701435 26.3546 2.07074 24.6725 3.94993 24.5832C4.45981 24.7829 5.00123 24.9222 5.47169 25.1877C12.108 28.9434 18.7364 32.7149 25.3621 36.4891C26.742 37.2749 27.1756 38.3972 26.5974 39.5799C25.9956 40.8073 24.4764 41.3566 23.1544 40.8099C22.8837 40.6969 22.6288 40.5444 22.3712 40.3999C15.8558 36.6967 9.33255 33.0014 2.83556 29.2693L2.83819 29.2667ZM25.1387 94.5178C25.1387 94.6098 25.0914 94.7018 25.0336 94.9042H16.2343C11.874 94.9042 7.51644 94.8858 3.1562 94.92C2.35196 94.9252 2.06285 94.6913 2.06548 93.8634C2.08913 86.7383 2.08913 79.6105 2.06548 72.4854C2.06285 71.6785 2.30466 71.4078 3.12992 71.4157C7.85023 71.4498 12.5679 71.4236 17.2882 71.4367C21.68 71.4498 24.9705 74.446 25.0967 78.8588C25.2465 84.0759 25.1387 89.3008 25.1361 94.5205L25.1387 94.5178ZM90.2296 94.891C89.8695 94.9094 89.5094 94.9016 89.1467 94.9016C69.2142 94.9016 49.2817 94.9016 29.3492 94.9016H28.1481V90.2364H29.4122C49.2791 90.2364 69.1459 90.2364 89.0127 90.2364C89.47 90.2364 89.9431 90.2601 90.382 90.1655C91.0969 90.0104 91.5226 89.5295 91.5253 88.7699C91.5253 88.0156 91.1363 87.5162 90.4056 87.3585C89.9956 87.2692 89.5594 87.2849 89.1362 87.2849C69.3009 87.2823 49.4683 87.2823 29.633 87.2823H28.1822V82.6461H29.3492C39.8411 82.6461 50.3304 82.6461 60.8223 82.6461C61.1508 82.6461 61.4819 82.6645 61.8052 82.6277C62.7225 82.5199 63.3007 81.8918 63.2639 81.0797C63.2271 80.2465 62.6436 79.7051 61.6764 79.6999C59.1192 79.6815 56.5619 79.692 54.0046 79.692C53.6524 79.692 53.3029 79.692 52.8745 79.692C52.8508 79.2715 52.8193 78.9534 52.8167 78.6328C52.7983 74.0334 52.7957 69.434 52.751 64.8372C52.7457 64.1906 52.9349 63.8122 53.5079 63.5152C54.667 62.9133 55.7971 62.2484 56.9955 61.5782C57.7893 63.2235 58.5856 64.8004 59.3189 66.4063C60.0312 67.9727 61.2034 68.9399 62.8197 69.4839C66.8199 70.8322 70.8016 72.2409 74.8018 73.5892C75.4247 73.7995 75.6113 74.0597 75.6429 74.7483C75.7191 76.3699 75.9767 77.981 76.1685 79.6867C74.3051 79.6867 72.3182 79.6867 70.3286 79.6867C69.7714 79.6867 69.2089 79.6578 68.6596 79.7183C67.8738 79.8076 67.3981 80.307 67.356 81.0849C67.314 81.8681 67.7556 82.3938 68.5204 82.5725C68.8647 82.654 69.2352 82.6409 69.5953 82.6409C76.3499 82.6461 83.1018 82.6225 89.8563 82.654C93.3808 82.6698 96.0642 85.3926 96.038 88.8225C96.0117 92.0368 93.436 94.7307 90.2269 94.8884L90.2296 94.891Z" fill="white"/>
<path d="M13.3799 85.4346C12.4022 85.4083 11.4193 85.403 10.4416 85.4346C9.53483 85.4635 8.90669 86.089 8.90406 86.8854C8.90143 87.6922 9.50856 88.3046 10.4206 88.3677C10.9094 88.4019 11.4009 88.3729 11.8897 88.3729C11.8897 88.3651 11.8897 88.3545 11.8897 88.3467C12.4443 88.3467 13.0067 88.4097 13.5508 88.3335C14.3892 88.2152 14.9096 87.5345 14.8176 86.7461C14.7203 85.9076 14.2131 85.4582 13.3799 85.4346Z" fill="white"/>
<path d="M10.2867 81.3453C10.8071 81.3768 11.3301 81.3505 11.8531 81.3505C11.8531 81.3426 11.8531 81.3348 11.8531 81.3242C12.4392 81.3242 13.0359 81.3847 13.6115 81.3085C14.3395 81.2139 14.7784 80.7382 14.8204 79.9865C14.8625 79.2427 14.5234 78.6014 13.7928 78.5383C12.5365 78.4279 11.2539 78.4253 9.99763 78.5436C9.2407 78.6172 8.8307 79.2742 8.92006 80.0548C9.0068 80.8223 9.48775 81.2953 10.2841 81.3426L10.2867 81.3453Z" fill="white"/>
</svg>
