<svg width="58" height="58" viewBox="0 0 58 58" fill="none" xmlns="http://www.w3.org/2000/svg">
<path d="M28.3489 7.25256C28.9837 7.52103 29.6785 7.70257 30.2405 8.07843C31.3229 8.79948 31.8485 9.88616 31.8979 11.1697C31.924 11.8396 31.9031 12.5121 31.9031 13.1922C32.5068 13.43 33.1131 13.6243 33.6777 13.9005C38.9519 16.4906 41.7334 20.6788 41.9389 26.4778C42.0092 28.4773 41.9155 30.487 42.0404 32.4814C42.2902 36.4702 43.6926 40.0754 46.0865 43.3022C46.6225 44.0232 47.2313 44.6982 47.8324 45.3681C48.2721 45.8591 48.4959 46.3781 48.1966 47.002C47.9104 47.6029 47.3874 47.7921 46.7369 47.7895C42.8444 47.7818 38.9493 47.7844 35.0567 47.7844H34.5233C34.4531 48.0196 34.3958 48.2472 34.3178 48.4671C33.3732 51.0726 31.5285 52.6323 28.7391 53.0925C28.6663 53.1053 28.5986 53.1411 28.5284 53.1667H27.0687C26.3323 52.9493 25.5517 52.8164 24.8648 52.4942C22.9966 51.6223 21.7711 50.1777 21.2039 48.2089C21.17 48.0938 21.1388 47.9787 21.1024 47.8637C21.0998 47.8509 21.0842 47.8407 21.0373 47.7844C20.8968 47.7844 20.7173 47.7844 20.5378 47.7844C16.614 47.7844 12.6902 47.787 8.76646 47.7844C7.60338 47.7844 6.90865 46.7386 7.43946 45.8003C7.52792 45.6468 7.64761 45.5062 7.77251 45.3758C10.5904 42.4098 12.456 38.9503 13.2184 34.9616C13.489 33.5451 13.5723 32.0876 13.6399 30.6456C13.7258 28.8123 13.5723 26.9585 13.7596 25.138C14.2384 20.4691 16.6374 16.9381 20.7147 14.5269C21.6306 13.9849 22.6505 13.6115 23.6913 13.1283C23.6913 12.645 23.6913 12.0646 23.6913 11.4817C23.6965 9.31853 24.9325 7.80229 27.0843 7.31904C27.1415 7.30625 27.1962 7.27301 27.2508 7.25C27.6151 7.25 27.982 7.25 28.3463 7.25L28.3489 7.25256ZM43.9268 45.0869C43.9164 45.0179 43.9216 44.9846 43.9086 44.9642C43.8149 44.8286 43.7187 44.6931 43.6224 44.5602C41.0621 40.9498 39.5685 36.9585 39.2953 32.5607C39.1782 30.6686 39.2433 28.7688 39.1991 26.8716C39.1808 26.1122 39.1418 25.3477 39.0195 24.5985C38.0282 18.4696 31.7054 14.2405 25.5153 15.5522C20.1084 16.6977 16.4032 21.1978 16.3902 26.6389C16.3876 28.104 16.4032 29.5691 16.385 31.0317C16.3174 36.0432 14.8238 40.6047 11.8732 44.6982C11.7925 44.8107 11.7171 44.9284 11.6078 45.0869H43.9242H43.9268ZM23.9697 47.8023C24.5162 49.4668 26.2491 50.574 28.073 50.4691C29.6889 50.3745 31.3255 49.1447 31.6039 47.8023H23.9723H23.9697ZM29.1529 12.6604C29.1529 12.1388 29.1997 11.6018 29.1425 11.0777C29.0696 10.4103 28.4451 9.93218 27.7764 9.94496C27.1259 9.95775 26.5249 10.4384 26.4598 11.0828C26.4052 11.6095 26.4494 12.1439 26.4494 12.6604H29.1555H29.1529ZM7.28074 26.5878C7.40823 26.9253 7.53833 27.2986 7.78031 27.5492C8.155 27.9353 8.67279 27.9838 9.17497 27.7614C9.72658 27.5185 9.99979 27.0736 10.0024 26.4804C10.0154 24.6624 10.2912 22.8828 10.861 21.1518C11.7327 18.5054 13.182 16.2068 15.1595 14.2201C15.7553 13.6218 15.7527 12.7857 15.2011 12.2564C14.6495 11.7271 13.7857 11.7578 13.2054 12.3433C9.43516 16.1454 7.47849 20.7095 7.27033 25.8872C7.27033 26.2042 7.21829 26.4165 7.28074 26.5878ZM45.3865 16.1045C44.5357 14.7161 43.5209 13.453 42.3578 12.305C41.8895 11.8422 41.2312 11.7527 40.6848 12.0493C40.1514 12.3408 39.8547 12.9468 40.0447 13.5374C40.141 13.834 40.3491 14.1229 40.5729 14.3505C42.6441 16.4702 44.1038 18.9299 44.9234 21.7578C45.3709 23.3022 45.5791 24.8823 45.5973 26.4881C45.6077 27.2909 46.1957 27.8764 46.9607 27.8764C47.7413 27.8764 48.3267 27.2705 48.332 26.4497C48.332 26.3014 48.332 26.1505 48.332 26.0022C48.2123 22.4533 47.2495 19.1498 45.3839 16.1045H45.3865Z" fill="white"/>
</svg>
