<svg width="158" height="39" viewBox="0 0 158 39" fill="none" xmlns="http://www.w3.org/2000/svg">
<path d="M121.138 8.96387H112.521C111.932 8.96387 111.426 9.38769 111.344 9.97556L107.856 32.0551C107.788 32.4926 108.13 32.8891 108.568 32.8891H112.986C113.396 32.8891 113.752 32.5883 113.82 32.1782L114.805 25.9166C114.901 25.3287 115.393 24.9049 115.995 24.9049H118.717C124.393 24.9049 127.676 22.1569 128.524 16.7156C128.907 14.3368 128.538 12.4638 127.43 11.165C126.199 9.72948 124.038 8.96387 121.151 8.96387H121.138ZM122.136 17.0301C121.671 20.1199 119.305 20.1199 117.021 20.1199H115.721L116.638 14.3505C116.692 13.995 116.993 13.7489 117.349 13.7489H117.951C119.51 13.7489 120.974 13.7489 121.74 14.6376C122.191 15.1708 122.328 15.95 122.164 17.0438L122.136 17.0301Z" fill="#A1A7B3"/>
<path d="M59.6545 8.96387H51.0373C50.4491 8.96387 49.943 9.38769 49.8473 9.97556L46.3593 32.0551C46.2909 32.4926 46.6329 32.8891 47.0706 32.8891H51.1877C51.7759 32.8891 52.282 32.4653 52.3777 31.8774L53.3215 25.9166C53.4172 25.3287 53.9097 24.9049 54.4978 24.9049H57.2198C62.8962 24.9049 66.1789 22.1569 67.027 16.7156C67.41 14.3368 67.0407 12.4638 65.9327 11.165C64.7017 9.72948 62.5269 8.96387 59.6545 8.96387ZM60.653 17.0301C60.1879 20.1199 57.8216 20.1199 55.5374 20.1199H54.2379L55.1544 14.3505C55.2091 13.995 55.51 13.7489 55.8656 13.7489H56.4675C58.0268 13.7489 59.4903 13.7489 60.2563 14.6376C60.7077 15.1708 60.8445 15.95 60.6803 17.0438L60.653 17.0301Z" fill="#A1A7B3"/>
<path d="M85.4242 16.9346H81.2934C80.9377 16.9346 80.6368 17.1943 80.5821 17.5361L80.4043 18.6845L80.117 18.2607C79.228 16.9619 77.2309 16.5381 75.2476 16.5381C70.6928 16.5381 66.7945 19.9833 66.0286 24.8367C65.6319 27.2566 66.1927 29.5534 67.5605 31.1667C68.8189 32.6432 70.6244 33.2584 72.7582 33.2584C76.4376 33.2584 78.4757 30.8932 78.4757 30.8932L78.2978 32.0416C78.2295 32.4791 78.5714 32.8756 79.0091 32.8756H82.7296C83.3177 32.8756 83.8238 32.4518 83.9059 31.8639L86.1354 17.7549C86.2038 17.3174 85.8619 16.9209 85.4242 16.9209V16.9346ZM79.6657 24.9598C79.269 27.3113 77.3951 28.8972 75.0014 28.8972C73.7977 28.8972 72.8403 28.5144 72.2247 27.7898C71.6092 27.0652 71.3904 26.0398 71.5819 24.8914C71.9512 22.5536 73.8524 20.9267 76.2051 20.9267C77.3814 20.9267 78.3252 21.3095 78.9544 22.0477C79.5836 22.786 79.8298 23.825 79.652 24.9598H79.6657Z" fill="#A1A7B3"/>
<path d="M146.907 16.9346H142.777C142.421 16.9346 142.12 17.1943 142.065 17.5361L141.888 18.6845L141.6 18.2607C140.711 16.9619 138.714 16.5381 136.731 16.5381C132.176 16.5381 128.278 19.9833 127.512 24.8367C127.115 27.2566 127.676 29.5534 129.044 31.1667C130.302 32.6432 132.108 33.2584 134.241 33.2584C137.921 33.2584 139.959 30.8932 139.959 30.8932L139.781 32.0416C139.713 32.4791 140.055 32.8756 140.492 32.8756H144.213C144.801 32.8756 145.307 32.4518 145.389 31.8639L147.619 17.7549C147.687 17.3174 147.345 16.9209 146.907 16.9209V16.9346ZM141.149 24.9598C140.752 27.3113 138.878 28.8972 136.485 28.8972C135.281 28.8972 134.324 28.5144 133.708 27.7898C133.093 27.0652 132.874 26.0398 133.065 24.8914C133.434 22.5536 135.336 20.9267 137.688 20.9267C138.865 20.9267 139.808 21.3095 140.438 22.0477C141.067 22.786 141.313 23.825 141.135 24.9598H141.149Z" fill="#A1A7B3"/>
<path d="M107.405 16.9346H103.26C102.864 16.9346 102.494 17.126 102.276 17.4541L96.5582 25.8758L94.1371 17.7822C93.9867 17.2764 93.5216 16.9346 92.9882 16.9346H88.9121C88.4197 16.9346 88.0777 17.4131 88.2282 17.8779L92.7967 31.276L88.5018 37.3325C88.1598 37.8111 88.5018 38.4673 89.0899 38.4673H93.2344C93.6311 38.4673 94.0004 38.2759 94.2192 37.9478L108.02 18.0556C108.349 17.5771 108.02 16.9346 107.432 16.9346H107.405Z" fill="#A1A7B3"/>
<path d="M151.763 9.57909L148.22 32.0551C148.152 32.4926 148.494 32.8891 148.932 32.8891H152.488C153.076 32.8891 153.582 32.4653 153.678 31.8774L157.166 9.79783C157.234 9.36034 156.892 8.96387 156.455 8.96387H152.474C152.119 8.96387 151.818 9.22363 151.763 9.56542V9.57909Z" fill="#A1A7B3"/>
<path opacity="0.68" d="M29.3849 10.1394C29.8499 7.18637 29.3849 5.17665 27.7845 3.35833C26.0337 1.34861 22.8604 0.500977 18.8117 0.500977H7.04845C6.21408 0.500977 5.5165 1.10253 5.37972 1.92282L0.469266 33.0803C0.373519 33.6955 0.852254 34.2561 1.46777 34.2561H8.74454L8.23845 37.4415C8.15638 37.9747 8.56672 38.4669 9.11385 38.4669H15.2417C15.9666 38.4669 16.5821 37.9337 16.6915 37.2228L16.7463 36.9083L17.8952 29.5804L17.9636 29.1702C18.073 28.4593 18.6885 27.9261 19.4135 27.9261H20.3299C26.2662 27.9261 30.9031 25.5063 32.2709 18.5201C32.8317 15.5944 32.5445 13.1608 31.0399 11.4519C30.5885 10.9324 30.0277 10.5086 29.3575 10.1531" fill="#A1A7B3"/>
<path opacity="0.7" d="M29.3849 10.1394C29.8499 7.18637 29.3849 5.17665 27.7845 3.35833C26.0337 1.34861 22.8604 0.500977 18.8117 0.500977H7.04845C6.21408 0.500977 5.5165 1.10253 5.37972 1.92282L0.469266 33.0803C0.373519 33.6955 0.852254 34.2561 1.46777 34.2561H8.74454L10.5637 22.6489L10.509 23.018C10.6321 22.1978 11.3434 21.5962 12.1641 21.5962H15.611C22.3953 21.5962 27.7024 18.8345 29.2618 10.8504C29.3028 10.6179 29.3438 10.3855 29.3849 10.1668" fill="#A1A7B3"/>
<path d="M12.5334 10.1804C12.6155 9.68827 12.9301 9.27812 13.3541 9.07305C13.5456 8.97735 13.7644 8.92266 13.9833 8.92266H23.2023C24.2966 8.92266 25.3088 8.99102 26.2526 9.14141C26.5124 9.18242 26.7723 9.23711 27.0322 9.29179C27.2784 9.34648 27.5246 9.41484 27.7708 9.4832C27.8939 9.52421 28.0034 9.55155 28.1265 9.59257C28.5778 9.74296 29.0155 9.92069 29.3985 10.1394C29.8636 7.18637 29.3985 5.17665 27.7982 3.35833C26.0474 1.34861 22.8741 0.500977 18.8253 0.500977H7.04845C6.21408 0.500977 5.5165 1.10253 5.37972 1.92282L0.469266 33.0803C0.373519 33.6955 0.852254 34.2561 1.46777 34.2561H8.74454L10.5637 22.6489L12.5197 10.1804H12.5334Z" fill="#A1A7B3"/>
</svg>
