<svg width="64" height="58" viewBox="0 0 64 58" fill="none" xmlns="http://www.w3.org/2000/svg">
<path fill-rule="evenodd" clip-rule="evenodd" d="M55.5 28.794C55.5 43.3375 43.7101 55.1274 29.1666 55.1274C14.6231 55.1274 2.83331 43.3375 2.83331 28.794C2.83331 14.2505 14.6231 2.46069 29.1666 2.46069C38.396 2.46069 46.5164 7.20869 51.2184 14.3953L30.8194 34.7944L18.2568 22.2317L16.4654 24.023L29.9238 37.4814C30.4184 37.976 31.2204 37.976 31.7151 37.4814L52.5414 16.6551C54.4316 20.2875 55.5 24.416 55.5 28.794ZM54.0194 15.1771C56.2381 19.218 57.5 23.8586 57.5 28.794C57.5 44.4421 44.8147 57.1274 29.1666 57.1274C13.5186 57.1274 0.833313 44.4421 0.833313 28.794C0.833313 13.146 13.5186 0.460693 29.1666 0.460693C38.9467 0.460693 47.5694 5.4159 52.6611 12.9526L61.3265 4.28725L63.1179 6.07858L54.0194 15.1771Z" fill="#545454"/>
</svg>
