<svg width="23" height="23" viewBox="0 0 23 23" fill="none" xmlns="http://www.w3.org/2000/svg">
<path fill-rule="evenodd" clip-rule="evenodd" d="M22.9999 5.62132L13.6819 14.9393C11.9246 16.6967 9.07532 16.6967 7.31796 14.9393L4.43928 12.0607C3.85349 11.4749 3.85349 10.5251 4.43928 9.93934C5.02507 9.35355 5.97481 9.35355 6.5606 9.93934L9.43928 12.818C10.0251 13.4038 10.9748 13.4038 11.5606 12.818L22.4329 1.94576C21.7339 0.780132 20.458 0 18.9999 0H3.99994C1.7908 0 -6.10352e-05 1.79086 -6.10352e-05 4V19C-6.10352e-05 21.2091 1.7908 23 3.99994 23H18.9999C21.2091 23 22.9999 21.2091 22.9999 19V5.62132Z" fill="#FD853A"/>
</svg>
