<svg width="59" height="59" viewBox="0 0 59 59" fill="none" xmlns="http://www.w3.org/2000/svg">
<path d="M50.1219 23.9743C46.4301 15.1303 39.5754 10.3371 30.0216 9.68708C24.7742 9.33082 19.9103 10.798 15.6991 13.9704C8.44194 19.4381 5.34843 26.7904 6.47569 35.8125C7.09031 40.7308 9.29315 44.9638 12.7687 48.4965C16.126 51.9082 20.1646 54.0662 24.8762 54.9296C25.7737 55.0942 26.682 55.1962 27.5849 55.3267H30.435C30.9014 55.2628 31.3692 55.1948 31.8369 55.1363C36.6655 54.5312 40.8863 52.5772 44.4407 49.2675C51.4817 42.7107 53.8259 32.8523 50.1219 23.9756V23.9743ZM29.0045 50.9645C18.798 50.955 10.5142 42.6304 10.5632 32.4307C10.6121 22.1916 18.8701 13.9568 29.044 13.9976C39.2668 14.0397 47.4771 22.2895 47.4554 32.5001C47.435 42.7283 39.1947 50.974 29.0045 50.9645Z" fill="white"/>
<path d="M19.2128 7.12414C19.6153 7.33355 20.1116 7.45457 20.5671 7.45729C26.1952 7.47904 31.8247 7.47224 37.4542 7.46952C37.6731 7.46952 37.8948 7.45049 38.111 7.41105C39.0492 7.237 39.7169 6.50952 39.8515 5.53048C39.9739 4.63982 39.4639 3.72197 38.6236 3.3222C38.474 3.25149 38.3231 3.18214 38.1721 3.11279H19.8505C19.6996 3.18214 19.5472 3.24741 19.399 3.3222C18.6199 3.71653 18.1875 4.35971 18.1603 5.22589C18.1345 6.04856 18.4771 6.7434 19.2141 7.1255L19.2128 7.12414Z" fill="white"/>
<path d="M31.5092 32.9762C31.3229 32.7858 31.191 32.4554 31.1883 32.1889C31.1611 30.2512 31.1733 28.3135 31.1733 26.3758H31.1692C31.1692 24.4041 31.1869 22.4325 31.1624 20.4608C31.1475 19.2547 30.1807 18.3327 29.0072 18.3355C27.8337 18.3368 26.8615 19.2615 26.8574 20.4676C26.8411 24.8529 26.8343 29.2382 26.875 33.6221C26.8791 34.0871 27.094 34.665 27.4135 34.9955C29.6082 37.2663 31.8491 39.4923 34.0914 41.7169C34.6367 42.258 35.3343 42.4063 36.074 42.2186C37.7343 41.7971 38.2673 39.7928 37.038 38.5431C35.2051 36.6789 33.3408 34.8445 31.5105 32.9776L31.5092 32.9762Z" fill="white"/>
</svg>
