<svg width="58" height="58" viewBox="0 0 58 58" fill="none" xmlns="http://www.w3.org/2000/svg">
<g clip-path="url(#clip0_2026_1583)">
<path d="M55.5778 45.7755C55.5716 43.8584 54.3901 42.657 52.4822 42.6248C52.1466 42.6186 51.8125 42.6248 51.4417 42.6248C51.4417 41.8248 51.4601 41.1184 51.4386 40.4119C51.3696 38.1807 49.3024 36.5869 47.1539 37.1692C46.5179 37.3409 45.9494 37.7623 45.4712 38.0075C44.5962 37.6183 43.7426 37.2382 42.889 36.8582L42.768 36.9899V36.2559C42.768 24.6353 42.7588 13.0147 42.7833 1.39411C42.7864 0.315266 42.4814 -0.463221 41.4685 -0.898438H3.84366C2.84296 -0.41265 2.55793 0.396486 2.56406 1.48453C2.59931 7.82429 2.58092 14.1656 2.58245 20.5053C2.58245 20.677 2.57325 20.8517 2.58858 21.0218C2.63302 21.5152 2.98548 21.8554 3.44215 21.857C3.89883 21.857 4.25282 21.5183 4.29879 21.0248C4.31412 20.8532 4.30493 20.68 4.30493 20.5084C4.30493 14.187 4.30493 7.86566 4.30493 1.54429V0.857754H41.0486C41.0486 1.11367 41.0486 1.33741 41.0486 1.56268C41.0486 8.40049 41.0486 15.2398 41.0486 22.0776C41.0486 27.0382 41.0501 32.0003 41.0409 36.9608C41.0409 37.1892 41.0118 37.5232 40.8662 37.629C39.6556 38.5163 39.3108 39.7346 39.3705 41.1613C39.4134 42.1696 39.3782 43.1811 39.3782 44.2231H23.8023C23.8023 42.9113 23.8299 41.6333 23.7962 40.3552C23.741 38.2374 21.7366 36.6421 19.6877 37.1386C18.995 37.3072 18.3652 37.7363 17.6587 38.0673C16.5753 37.0574 15.2405 36.6758 13.7479 37.3715C12.2599 38.0657 11.676 39.3223 11.7435 40.9284C11.7664 41.4739 11.7465 42.0225 11.7465 42.6232C11.4002 42.6232 11.1366 42.6232 10.8715 42.6232C8.7567 42.634 7.61503 43.7787 7.61196 45.892C7.61196 46.9019 7.61196 47.9117 7.61196 48.9523H4.30339V48.2244C4.30339 40.5621 4.30339 32.8998 4.30339 25.2376C4.30339 24.5112 3.9969 24.1281 3.43755 24.1311C2.89353 24.1342 2.58551 24.5081 2.58551 25.1916C2.58398 33.0638 2.58244 40.9375 2.58551 48.8098C2.58551 50.0342 3.29197 50.7192 4.521 50.7192C5.51556 50.7192 6.51013 50.6977 7.50316 50.7192C7.69165 50.7238 7.9491 50.8403 8.05178 50.9889C8.69234 51.9176 9.56277 52.3635 10.6799 52.3497C11.0186 52.3451 11.3557 52.3497 11.7526 52.3497C11.7526 53.1512 11.7389 53.8745 11.7557 54.5978C11.7818 55.7027 12.2461 56.6115 13.1411 57.2398C13.5839 57.5509 14.1295 57.7133 14.6291 57.9432H15.7769C16.4634 57.606 17.15 57.2689 17.7721 56.9639C18.4142 57.275 19.1023 57.6091 19.7919 57.9432H20.9397C21.3749 57.7547 21.8439 57.6198 22.2362 57.367C23.2568 56.7126 23.7824 55.7426 23.8023 54.5289C23.8238 53.2876 23.8069 52.0448 23.8069 50.7238C24.0552 50.7238 24.2575 50.7238 24.4613 50.7238C26.124 50.7238 27.7867 50.7269 29.4494 50.7223C30.136 50.7207 30.5252 50.4188 30.5436 49.8963C30.5635 49.3568 30.1421 49.0044 29.4479 49.0028C27.5952 48.9983 25.744 49.0013 23.8498 49.0013V46.0222H39.3338V48.9691C39.1422 48.9799 38.9399 48.9982 38.7392 48.9998C37.0765 49.0028 35.4122 48.9753 33.751 49.0228C33.4246 49.032 32.9879 49.245 32.8101 49.5055C32.4362 50.0572 32.9143 50.7131 33.6606 50.7192C35.3233 50.733 36.986 50.7238 38.6487 50.7238C38.8572 50.7238 39.0671 50.7238 39.3797 50.7238C39.3797 51.0119 39.3797 51.2709 39.3797 51.5283C39.3797 52.4662 39.3736 53.4056 39.3813 54.3435C39.3966 56.1088 40.2823 57.2965 41.9696 57.8359C42.037 57.8574 42.0952 57.9079 42.1581 57.9447H43.4193C44.1028 57.6045 44.7878 57.2643 45.387 56.967C46.0551 57.2858 46.7447 57.6152 47.4343 57.9447H48.5821C48.6312 57.9156 48.6756 57.8742 48.7277 57.8589C50.5437 57.3164 51.4401 56.1226 51.4463 54.2331C51.4478 53.6263 51.4463 53.0194 51.4463 52.3497C51.8478 52.3497 52.1864 52.3543 52.5266 52.3497C54.3625 52.3221 55.5686 51.1084 55.5793 49.2741C55.5854 48.1064 55.5839 46.9386 55.5793 45.7709L55.5778 45.7755ZM11.7205 50.5935C11.2102 50.5935 10.7136 50.6548 10.2386 50.5767C9.69763 50.4878 9.35895 50.0894 9.34823 49.53C9.32371 48.1723 9.32371 46.8145 9.34823 45.4583C9.35895 44.856 9.79877 44.4239 10.4026 44.3733C10.8179 44.3381 11.2377 44.3672 11.7205 44.3672V50.5935ZM16.9155 54.3465C16.9155 55.3242 16.3332 56.0537 15.4612 56.2038C14.6812 56.3387 13.8736 55.8851 13.5916 55.1097C13.4966 54.8492 13.4736 54.5503 13.4721 54.2684C13.4629 52.0111 13.4675 49.7537 13.4675 47.4964C13.4675 45.2391 13.4659 42.9818 13.4675 40.7245C13.469 39.5537 14.1509 38.7722 15.1685 38.7615C16.1983 38.7507 16.9155 39.5583 16.917 40.746C16.9186 45.279 16.9201 49.8135 16.917 54.3465H16.9155ZM22.0783 54.4936C22.0737 55.3763 21.4393 56.0843 20.6026 56.21C19.7781 56.3341 18.9567 55.8054 18.7146 54.9702C18.6518 54.7541 18.641 54.5182 18.6395 54.2913C18.6349 49.7584 18.6349 45.2253 18.638 40.6924C18.638 39.5445 19.3582 38.7523 20.3742 38.7615C21.3887 38.7707 22.0814 39.5614 22.0829 40.723C22.086 42.9803 22.0829 45.2376 22.0829 47.4934H22.0814C22.0814 49.8273 22.0906 52.1612 22.0768 54.4936H22.0783ZM44.5472 54.3956C44.5426 55.3349 43.9434 56.0552 43.0959 56.2038C42.3144 56.3418 41.5114 55.8866 41.2202 55.1112C41.1359 54.8844 41.1037 54.627 41.1022 54.3833C41.0961 49.7859 41.0976 45.1886 41.0976 40.5912C41.0976 39.3469 41.87 38.8749 42.8262 38.7783C43.761 38.6848 44.541 39.5491 44.5472 40.6035C44.5594 42.9022 44.5502 45.2008 44.5502 47.4995C44.5502 49.7982 44.5579 52.0969 44.5472 54.3956ZM49.7207 54.348C49.7207 55.3258 49.1369 56.0537 48.2649 56.2038C47.4849 56.3387 46.6773 55.8851 46.3968 55.1081C46.3018 54.8476 46.2788 54.5488 46.2773 54.2668C46.2681 52.0095 46.2727 49.7522 46.2727 47.4949C46.2727 45.2376 46.2712 42.9803 46.2727 40.723C46.2742 39.5522 46.9577 38.7707 47.9753 38.7615C49.0066 38.7523 49.7223 39.5599 49.7223 40.7475C49.7238 45.2805 49.7253 49.8151 49.7223 54.348H49.7207ZM53.8476 49.4411C53.8354 50.1261 53.3726 50.5782 52.6906 50.6196C52.2968 50.6426 51.8999 50.6242 51.4739 50.6242V44.3779C51.955 44.3779 52.4117 44.3396 52.8577 44.3871C53.4277 44.4469 53.8369 44.9265 53.8461 45.5426C53.866 46.8421 53.8675 48.1431 53.8461 49.4427L53.8476 49.4411Z" fill="white"/>
<path d="M20.4923 13.2415C20.6792 13.2707 20.8738 13.2584 21.0639 13.2584C23.4698 13.2584 25.8742 13.2584 28.2802 13.2584C30.6861 13.2584 33.1672 13.2584 35.6114 13.2584C35.7831 13.2584 35.9562 13.2661 36.1263 13.2477C36.5861 13.1971 36.8619 12.9381 36.8956 12.4722C36.9324 11.9773 36.6734 11.6738 36.203 11.5666C36.0206 11.5252 35.8229 11.5359 35.6329 11.5359C30.7643 11.5359 25.8957 11.5344 21.0286 11.5359C20.8018 11.5359 20.5643 11.539 20.3513 11.6018C19.9314 11.7259 19.7368 12.0416 19.772 12.4768C19.8072 12.9151 20.0632 13.1741 20.4923 13.24V13.2415Z" fill="white"/>
<path d="M36.8696 24.5371C36.7624 24.2505 36.4406 24.0222 36.1724 23.826C36.059 23.7433 35.8383 23.8046 35.6667 23.8046C33.2224 23.8046 30.7797 23.8046 28.3354 23.8046C25.8911 23.8046 23.4484 23.8046 21.0041 23.8046C20.8509 23.8046 20.6977 23.7954 20.5459 23.8122C20.0877 23.8643 19.8134 24.1218 19.7736 24.5861C19.7337 25.0535 19.9728 25.3585 20.408 25.4826C20.6042 25.5393 20.8233 25.527 21.0333 25.527C25.9019 25.5286 30.7705 25.5301 35.6391 25.5255C35.8827 25.5255 36.1417 25.5163 36.3685 25.4382C36.7823 25.2941 37.0168 24.9325 36.8696 24.5386V24.5371Z" fill="white"/>
<path d="M19.7767 16.5821C19.8457 17.0633 20.1767 17.2962 20.8417 17.2977C23.3427 17.3023 25.8437 17.2993 28.3446 17.2993C30.7506 17.2993 33.155 17.2993 35.561 17.2993C36.5218 17.2993 36.9003 17.0587 36.9034 16.4487C36.9065 15.8373 36.508 15.5752 35.5717 15.5752C30.7414 15.5752 25.9126 15.5752 21.0823 15.5752C20.8739 15.5752 20.6594 15.5722 20.4556 15.6136C19.9683 15.7116 19.7077 16.0978 19.7767 16.5805V16.5821Z" fill="white"/>
<path d="M36.1264 27.8444C35.9961 27.8245 35.8597 27.8352 35.7264 27.8352C30.8011 27.8352 25.8743 27.8352 20.949 27.8352C20.7957 27.8352 20.6394 27.8183 20.4923 27.849C20.0509 27.9425 19.7797 28.2076 19.7705 28.678C19.7613 29.1485 20.0218 29.4289 20.4601 29.5332C20.6425 29.5761 20.8402 29.5561 21.0302 29.5561C23.4545 29.5561 25.8804 29.5561 28.3047 29.5561C30.7291 29.5561 33.1933 29.5561 35.636 29.5561C35.8076 29.5561 35.9839 29.573 36.1509 29.5423C36.6214 29.455 36.9079 29.1776 36.9003 28.6811C36.8926 28.1846 36.6014 27.9164 36.1264 27.8413V27.8444Z" fill="white"/>
<path d="M8.89148 27.5928C9.36194 28.1444 9.84773 28.6854 10.3473 29.211C10.8009 29.6892 11.2928 29.6815 11.7265 29.1926C12.056 28.8218 12.3548 28.4249 12.6659 28.0372C13.7202 26.7285 14.7807 25.4259 15.8243 24.108C16.3239 23.4766 16.0894 22.6644 15.3799 22.6353C15.0795 22.623 14.678 22.836 14.4757 23.0766C13.308 24.4635 12.1863 25.8887 11.0001 27.3614C10.6875 27.0196 10.4285 26.7131 10.1466 26.4327C9.75425 26.0434 9.28685 26.0251 8.92213 26.3607C8.5712 26.684 8.54208 27.179 8.89301 27.5912L8.89148 27.5928Z" fill="white"/>
<path d="M10.2264 16.8308C10.8317 17.4867 11.3083 17.4713 11.8784 16.768C13.1779 15.1619 14.4713 13.5498 15.7662 11.9407C15.8505 11.8365 15.9363 11.7308 15.9976 11.6143C16.2183 11.1975 16.1325 10.8205 15.7754 10.5385C15.4153 10.255 15.0245 10.2734 14.6797 10.5845C14.5111 10.7377 14.3747 10.9262 14.2307 11.1055C13.1626 12.428 12.0975 13.7521 11.0018 15.1129C10.729 14.8171 10.4884 14.549 10.2402 14.2884C9.81109 13.8394 9.30539 13.772 8.92994 14.1061C8.53763 14.4555 8.55908 14.9796 8.99583 15.47C9.40193 15.9282 9.81263 16.3833 10.2264 16.8323V16.8308Z" fill="white"/>
</g>
<defs>
<clipPath id="clip0_2026_1583">
<rect width="58" height="58" fill="white"/>
</clipPath>
</defs>
</svg>
