<svg width="59" height="59" viewBox="0 0 59 59" fill="none" xmlns="http://www.w3.org/2000/svg">
<g clip-path="url(#clip0_2026_68)">
<path d="M58.4246 51.8222C57.6054 48.7612 55.81 47.3815 52.6427 47.3815C51.7666 47.3815 50.8905 47.3815 49.9558 47.3815C50.0359 47.1336 50.0882 46.9535 50.1529 46.7779C50.8058 45.0134 51.4694 43.2503 52.1146 41.4827C52.6612 39.9829 52.3271 39.2485 50.8319 38.7234C48.2805 37.8257 45.7245 36.9465 43.1654 36.0734C42.8421 35.9626 42.6619 35.8086 42.5972 35.4545C42.2616 33.6206 41.8982 31.7929 41.5517 29.9605C41.484 29.6033 41.3423 29.2261 41.4008 28.8858C41.6641 27.3553 41.986 25.834 42.2893 24.2988C42.8128 24.305 43.0977 24.4374 43.07 25.0271C43.0238 25.9679 43.053 26.9133 43.0592 27.8557C43.07 29.7342 44.3741 31.12 46.1326 31.1292C47.9356 31.1385 49.2752 29.7588 49.2814 27.8742C49.2876 26.0849 49.2845 24.2942 49.2814 22.505C49.2814 20.8297 48.5146 19.7657 46.924 19.2222C45.2364 18.6448 43.5473 18.072 41.8628 17.4884C41.6703 17.4222 41.4378 17.3436 41.3254 17.1943C40.865 16.5861 40.4431 15.9486 39.9889 15.2942C41.1653 14.4335 41.9983 13.3633 42.4848 12.0591C42.9991 10.6811 43.2609 9.23828 43.2285 7.76318C43.167 4.90228 41.9752 2.73736 39.3052 1.50708C38.2643 1.02668 37.1634 0.92967 36.0409 0.968164C34.1732 1.02976 32.3685 0.78955 30.6671 -0.0465462C30.0897 -0.329864 29.6924 -0.15895 29.3922 0.430783C28.7393 1.71957 28.359 3.42256 30.0281 5.22872C28.9487 6.92862 28.4745 8.76249 28.9518 10.7719C29.4245 12.7582 30.6209 14.2333 32.3054 15.3804C31.7757 16.2104 31.2045 16.9695 30.7857 17.8056C30.3561 18.6602 29.7756 18.9758 28.8332 18.8757C28.4021 18.8295 28.1403 18.7217 27.9094 18.3645C27.3766 17.5423 26.8099 16.7416 26.2495 15.9378C25.1624 14.3811 23.2808 13.9946 21.8134 15.0186C20.3537 16.0379 20.0704 17.9457 21.1559 19.5024C22.0921 20.842 23.0852 22.1431 23.966 23.5181C24.7636 24.7638 25.806 25.3535 27.2858 25.2396C28.0803 25.178 28.884 25.2288 29.7278 25.2288C29.7278 26.2697 29.7494 27.2305 29.714 28.1898C29.7047 28.4439 29.5785 28.7518 29.4014 28.932C28.3651 29.9883 27.3165 31.0353 26.2356 32.0454C25.1408 33.0693 24.6343 34.2981 24.6558 35.7963C24.6866 37.9704 24.6543 40.1461 24.6727 42.3203C24.6758 42.7083 24.5603 42.8808 24.1893 43.0224C22.4555 43.6845 21.256 44.8779 20.7356 46.6963C20.6724 46.915 20.6293 47.1383 20.5785 47.3584H17.0062C16.843 43.7538 15.0215 41.5581 11.5154 40.8098V25.1749C12.0605 25.4829 12.5363 25.7616 13.0213 26.0233C14.6889 26.9226 16.6844 26.3806 17.5698 24.7931C18.4397 23.2348 17.8562 21.501 16.1255 20.514C14.1407 19.3838 12.1529 18.2583 10.1666 17.1312C8.21412 16.0225 6.27555 14.8862 4.3031 13.8129C2.71252 12.9476 0.716964 13.565 -0.134531 15.1187C-0.973707 16.6508 -0.410142 18.383 1.24049 19.3284C2.28908 19.9289 3.33151 20.5448 4.40011 21.1099C4.83587 21.3409 4.96827 21.6181 4.96365 22.1046C4.93594 24.5683 4.94981 27.0319 4.95443 29.4955C4.95443 29.7434 4.91131 30.0483 5.03296 30.2269C5.21003 30.4841 5.50412 30.7812 5.7782 30.8167C6.02302 30.8475 6.36947 30.5965 6.5604 30.3747C6.6959 30.2177 6.67434 29.9005 6.67434 29.6557C6.68204 27.4815 6.67896 25.3058 6.67896 23.1317V22.4264C7.61669 22.9577 8.43893 23.4473 9.28272 23.8923C9.63379 24.0771 9.75542 24.2973 9.75388 24.6976C9.74003 29.8743 9.74465 35.051 9.74311 40.2293C9.74311 40.4141 9.72463 40.5988 9.71539 40.7898H6.67896V40.14C6.67896 38.3308 6.67896 36.5215 6.67896 34.7123C6.67896 34.5198 6.68359 34.3243 6.65126 34.1364C6.57273 33.6806 6.2971 33.4127 5.82746 33.4081C5.35937 33.4019 5.0699 33.6529 4.98521 34.1133C4.95134 34.3012 4.95288 34.4967 4.95288 34.6876C4.95134 36.5154 4.95288 38.3446 4.9498 40.1723C4.9498 40.374 4.92825 40.5773 4.91439 40.8175C4.03056 40.8175 3.20677 40.8175 2.38454 40.8175C0.713882 40.8175 -0.00517789 41.5319 -0.00671767 43.198C-0.00825744 47.3353 -0.00671767 51.4743 -0.00671767 55.6116C-0.00671767 57.31 0.716968 58.0321 2.41072 58.0321C18.0656 58.0321 33.7205 58.0321 49.3738 58.0321C50.6795 58.0321 51.9883 58.0753 53.2925 58.0183C55.556 57.9197 57.162 56.7942 58.0889 54.7263C58.2752 54.3105 58.3661 53.8517 58.5 53.4128V51.9116C58.4754 51.8838 58.4369 51.8592 58.4277 51.8269L58.4246 51.8222ZM29.6801 23.455C28.5638 23.455 27.4428 23.4766 26.3249 23.435C26.1294 23.4273 25.8953 23.1902 25.7598 23.0023C24.662 21.4749 23.5734 19.9412 22.5017 18.3953C22.0136 17.6916 22.1737 16.8709 22.8343 16.4244C23.4671 15.9963 24.2724 16.1488 24.7544 16.8263C25.4657 17.8271 26.1663 18.8372 26.8408 19.8643C27.181 20.3847 27.6091 20.6326 28.2296 20.5972C28.6885 20.571 29.1489 20.5926 29.6816 20.5926V23.4581L29.6801 23.455ZM48.239 39.6118C49.0628 39.9136 49.7972 40.1846 50.5979 40.4787C50.5363 40.6912 50.4917 40.8883 50.4224 41.0746C49.711 42.9978 49.0012 44.9225 48.2682 46.838C48.1882 47.0474 47.9418 47.3646 47.8094 47.3477C47.5276 47.3107 47.1473 47.1537 47.0256 46.9288C46.5298 46.0081 46.3189 44.9703 46.6222 43.9756C47.0672 42.5159 47.6754 41.1054 48.239 39.6118ZM42.3216 37.604C43.5581 38.012 44.7914 38.4308 46.0248 38.8466C46.2034 38.9066 46.3789 38.9744 46.6053 39.0575C46.1834 40.1585 45.7723 41.2255 45.3473 42.3342C43.4641 41.6875 41.621 41.0546 39.7795 40.4218C39.1281 40.1985 38.4491 40.0291 37.8332 39.7304C37.4498 39.5441 37.0556 39.2223 36.8493 38.8589C36.3227 37.9273 35.8992 36.9388 35.4404 35.9826C36.315 35.4052 37.2003 34.9001 37.9918 34.2781C38.7694 33.6668 39.453 32.9354 40.2168 32.2225C40.4677 33.4974 40.7357 34.7708 40.9666 36.0503C41.1114 36.8541 41.5564 37.353 42.3201 37.6055L42.3216 37.604ZM40.7511 18.9496C42.6943 19.5994 44.6328 20.2631 46.5668 20.9375C47.2427 21.1731 47.5445 21.6211 47.5522 22.331C47.5615 23.2718 47.5538 24.2141 47.5538 25.1549C47.5538 26.0772 47.5615 26.9996 47.5507 27.9219C47.5415 28.7842 46.981 29.3801 46.188 29.3939C45.4012 29.4078 44.8053 28.818 44.793 27.9573C44.7745 26.7286 44.7899 25.4983 44.7868 24.268C44.7853 23.4381 44.6036 23.1825 43.8275 22.9145C42.5064 22.4588 41.1776 22.0215 39.8641 21.5441C39.0019 21.23 38.6616 20.3385 39.0712 19.5825C39.3884 18.9958 40.0643 18.7202 40.7511 18.9512V18.9496ZM30.6794 1.93206C30.7318 1.9259 30.7964 1.89973 30.8411 1.9182C32.5502 2.59878 34.3348 2.72043 36.1518 2.71119C36.8508 2.70811 37.5914 2.74968 38.2443 2.97295C40.634 3.79211 41.8782 6.08945 41.4008 8.78097C40.9682 8.37601 40.5894 8.05574 40.2491 7.69851C39.1189 6.50827 37.7747 5.82307 36.1102 5.69681C34.592 5.58132 33.123 5.19638 31.8081 4.37722C30.7425 3.71358 30.4099 2.97603 30.6794 1.93206ZM30.5008 9.12588C30.5331 8.08653 30.8396 7.1288 31.4832 6.20955C33.0938 6.97482 34.7706 7.32589 36.4982 7.49834C37.5683 7.60612 38.426 8.17584 39.0666 8.99654C39.6394 9.73255 40.1136 10.5517 40.5801 11.3647C40.6833 11.5449 40.6525 11.8913 40.5478 12.0884C39.4731 14.0916 37.3559 15.0509 35.0462 14.6152C32.484 14.1301 30.4238 11.6526 30.5023 9.12588H30.5008ZM31.4462 20.4709C31.4477 20.1661 31.5463 19.8242 31.7049 19.564C32.4024 18.4169 33.14 17.2913 33.8868 16.1195C35.3203 16.5661 36.7538 16.543 38.1889 16.1365C38.2936 16.1072 38.4845 16.2011 38.5615 16.2966C38.8002 16.5922 39.0034 16.9171 39.2482 17.2697C37.8332 17.9334 37.0325 18.9974 37.1957 20.5572C37.4036 22.5558 38.9403 23.1994 40.6541 23.629C40.3538 25.1472 40.0643 26.6085 39.7718 28.0913H31.4801C31.4709 27.8865 31.4539 27.6986 31.4539 27.5108C31.4462 25.1642 31.4308 22.816 31.4462 20.4694V20.4709ZM27.3935 33.328C28.4975 32.2871 29.5615 31.2031 30.6594 30.1561C30.8211 30.0021 31.0813 29.8697 31.2969 29.8682C33.8883 29.8481 36.4797 29.8558 39.0712 29.8574C39.1435 29.8574 39.2159 29.8728 39.4515 29.9005C39.0327 30.541 38.7509 31.2047 38.2705 31.6558C37.4113 32.4658 36.4859 33.2341 35.4896 33.8639C34.033 34.7862 32.504 35.5992 30.9797 36.406C30.0389 36.9034 29.6139 37.5917 29.6693 38.6757C29.7371 39.9952 29.6847 41.3195 29.6847 42.6806H26.3881C26.3881 42.4635 26.3881 42.2741 26.3881 42.0863C26.3881 39.9706 26.4035 37.855 26.3804 35.7393C26.3696 34.7739 26.6868 33.9917 27.3904 33.328H27.3935ZM22.5155 46.8087C22.9929 45.4876 24.4279 44.4637 25.8307 44.4544C27.0917 44.4452 28.3544 44.4529 29.6893 44.4529V47.3338H22.3939C22.4339 47.1552 22.457 46.975 22.5171 46.8103L22.5155 46.8087ZM2.16282 17.8425C1.83331 17.6531 1.48993 17.356 1.33288 17.0234C0.910979 16.1365 1.7132 15.151 2.81414 15.0987C3.11285 15.2157 3.43005 15.2973 3.70567 15.4528C7.5936 17.6531 11.4769 19.8627 15.3587 22.0738C16.167 22.5342 16.4211 23.1917 16.0824 23.8846C15.7298 24.6037 14.8398 24.9255 14.0652 24.6052C13.9067 24.539 13.7573 24.4497 13.6064 24.365C9.7893 22.1955 5.96759 20.0306 2.16128 17.8441L2.16282 17.8425ZM15.2278 56.0705C15.2278 56.1244 15.2001 56.1783 15.1662 56.2968H10.011C7.45655 56.2968 4.90361 56.286 2.34912 56.3061C1.87795 56.3091 1.70857 56.1721 1.71011 55.6871C1.72397 51.5127 1.72397 47.3369 1.71011 43.1626C1.70857 42.6899 1.85024 42.5313 2.33373 42.5359C5.09916 42.5559 7.86305 42.5405 10.6285 42.5482C13.2014 42.5559 15.1292 44.3112 15.2031 46.8965C15.2909 49.953 15.2278 53.014 15.2262 56.072L15.2278 56.0705ZM53.3618 56.2891C53.1509 56.2999 52.9399 56.2953 52.7274 56.2953C41.0498 56.2953 29.3721 56.2953 17.6945 56.2953H16.9908V53.5622H17.7315C29.3706 53.5622 41.0097 53.5622 52.6489 53.5622C52.9168 53.5622 53.194 53.576 53.4511 53.5206C53.8699 53.4298 54.1194 53.148 54.1209 52.703C54.1209 52.2611 53.893 51.9685 53.465 51.8761C53.2247 51.8238 52.9692 51.833 52.7213 51.833C41.1006 51.8315 29.4815 51.8315 17.8608 51.8315H17.0108V49.1153H17.6945C23.8413 49.1153 29.9865 49.1153 36.1333 49.1153C36.3258 49.1153 36.5198 49.1261 36.7092 49.1045C37.2465 49.0414 37.5853 48.6734 37.5637 48.1976C37.5422 47.7095 37.2003 47.3923 36.6337 47.3892C35.1355 47.3785 33.6373 47.3846 32.1391 47.3846C31.9328 47.3846 31.728 47.3846 31.477 47.3846C31.4632 47.1383 31.4447 46.9519 31.4431 46.7641C31.4324 44.0695 31.4308 41.3749 31.4046 38.6818C31.4016 38.303 31.5124 38.0813 31.8481 37.9073C32.5271 37.5547 33.1892 37.1651 33.8914 36.7725C34.3564 37.7364 34.8229 38.6603 35.2525 39.6011C35.6698 40.5188 36.3565 41.0854 37.3035 41.4041C39.647 42.194 41.9798 43.0194 44.3233 43.8093C44.6883 43.9324 44.7976 44.0849 44.8161 44.4883C44.8607 45.4383 45.0116 46.3822 45.124 47.3815C44.0323 47.3815 42.8683 47.3815 41.7026 47.3815C41.3762 47.3815 41.0467 47.3646 40.7249 47.4C40.2645 47.4524 39.9858 47.7449 39.9612 48.2007C39.9365 48.6596 40.1952 48.9675 40.6433 49.0722C40.845 49.1199 41.0621 49.1122 41.273 49.1122C45.2303 49.1153 49.1859 49.1015 53.1431 49.1199C55.208 49.1292 56.7801 50.7244 56.7647 52.7338C56.7493 54.6169 55.2403 56.1952 53.3603 56.2876L53.3618 56.2891Z" fill="white"/>
<path d="M8.3388 50.7491C7.766 50.7337 7.19012 50.7306 6.61732 50.7491C6.0861 50.766 5.7181 51.1325 5.71656 51.599C5.71502 52.0717 6.07071 52.4305 6.60501 52.4674C6.89141 52.4875 7.17934 52.4705 7.46574 52.4705C7.46574 52.4659 7.46574 52.4597 7.46574 52.4551C7.79063 52.4551 8.12015 52.4921 8.43888 52.4474C8.93007 52.3781 9.23494 51.9793 9.18105 51.5174C9.12408 51.0262 8.8269 50.7629 8.3388 50.7491Z" fill="white"/>
<path d="M6.52658 48.3533C6.83145 48.3718 7.13786 48.3564 7.44428 48.3564C7.44428 48.3518 7.44428 48.3472 7.44428 48.341C7.78764 48.341 8.13718 48.3764 8.47439 48.3318C8.90091 48.2763 9.15805 47.9976 9.18268 47.5573C9.20732 47.1215 9.00869 46.7458 8.58063 46.7089C7.84462 46.6442 7.09322 46.6426 6.35721 46.7119C5.91375 46.755 5.67355 47.14 5.7259 47.5973C5.77672 48.0469 6.05848 48.3241 6.52504 48.3518L6.52658 48.3533Z" fill="white"/>
</g>
<defs>
<clipPath id="clip0_2026_68">
<rect width="58" height="58" fill="white" transform="translate(0.5 0.696289)"/>
</clipPath>
</defs>
</svg>
